<svg width="58" height="51" viewBox="0 0 58 51" fill="none" xmlns="http://www.w3.org/2000/svg">
<mask id="mask0_1_3519" style="mask-type:luminance" maskUnits="userSpaceOnUse" x="0" y="0" width="58" height="51">
<path d="M57.1672 0.00476074H0.0795898V50.1209H57.1672V0.00476074Z" fill="white"/>
</mask>
<g mask="url(#mask0_1_3519)">
<path d="M37.7133 13.7151C37.5251 13.4066 37.3365 13.0981 37.1474 12.7896L35.3626 9.88625C33.5116 6.8758 31.6584 3.86644 29.8031 0.858188C29.7219 0.610287 29.5647 0.394241 29.3538 0.240688C29.1429 0.0871345 28.8891 0.00386847 28.6282 0.00269806C28.3674 0.00152764 28.1128 0.0825123 27.9005 0.234167C27.6883 0.385822 27.5292 0.600449 27.4457 0.847611C27.2117 1.21714 26.983 1.59064 26.7549 1.96414L24.5523 5.54707C22.4748 8.92728 20.3942 12.3064 18.3106 15.6844C18.1189 15.8976 17.9962 16.1638 17.9586 16.448C17.921 16.7322 17.9701 17.0211 18.0997 17.2769C18.2581 17.5004 18.4777 17.6733 18.7321 17.7749C18.9865 17.8765 19.2648 17.9023 19.5335 17.8494C19.8185 17.8494 20.104 17.8494 20.3896 17.8546C20.9132 17.8626 21.4546 17.8698 21.9854 17.8335C22.0797 17.8142 22.1769 17.8143 22.2712 17.8336C22.3655 17.8529 22.4549 17.8911 22.5341 17.9459C22.6405 18.0463 22.6835 18.2295 22.6782 18.558C22.6471 20.4982 22.6564 46.2444 22.6696 48.6791C22.6749 49.6046 23.0953 50.1169 23.8542 50.1202H23.8622C24.0255 50.13 24.1889 50.1021 24.3397 50.0388C24.4906 49.9754 24.6248 49.8782 24.7321 49.7546C24.9528 49.4441 25.0602 49.0672 25.0362 48.687C25.0461 45.8154 25.0461 19.4022 25.0362 16.9345C25.0322 15.8953 24.6184 15.4861 23.56 15.4748C23.0312 15.4695 22.5024 15.4702 21.9391 15.4748H21.2563L21.3627 15.2864C21.4519 15.1284 21.52 15.0068 21.5927 14.8898C22.1961 13.9088 22.8001 12.928 23.4047 11.9474C25.0025 9.35344 26.6551 6.67087 28.2661 4.02399C28.3838 3.83096 28.5173 3.63397 28.6204 3.63397C28.7282 3.63397 28.873 3.85146 28.9721 4.01474C30.5851 6.66822 32.2404 9.35542 33.8421 11.9547C34.4428 12.93 35.0435 13.9055 35.6442 14.8812C35.7176 15.0002 35.7856 15.1218 35.8756 15.2818L35.9853 15.4762H35.2912C34.7286 15.4762 34.2097 15.4762 33.6901 15.4762C32.6245 15.4867 32.208 15.8926 32.2034 16.9252C32.1921 19.5033 32.1981 45.7341 32.2034 48.6771C32.1985 48.8555 32.2127 49.0339 32.2457 49.2093C32.3 49.4613 32.4366 49.6881 32.6341 49.8538C32.8315 50.0196 33.0785 50.1149 33.3361 50.1248C33.5937 50.1346 33.8473 50.0585 34.0568 49.9082C34.2663 49.758 34.4199 49.5424 34.4933 49.2952C34.5597 48.9997 34.587 48.6968 34.5746 48.3942C34.5792 47.0013 34.601 20.5035 34.564 18.4959C34.549 18.4009 34.553 18.304 34.5757 18.2106C34.5984 18.1172 34.6393 18.0293 34.6962 17.9518C34.7755 17.897 34.8649 17.8586 34.9593 17.839C35.0537 17.8193 35.151 17.8188 35.2456 17.8375C35.7678 17.8646 36.2999 17.8593 36.8136 17.854C37.1322 17.854 37.4515 17.8474 37.7708 17.854C38.0413 17.9033 38.3204 17.8696 38.5714 17.7572C38.8223 17.6449 39.0334 17.4592 39.1769 17.2247C39.2847 16.9733 39.3194 16.6966 39.2771 16.4264C39.2348 16.1561 39.1171 15.9033 38.9376 15.697C38.5231 15.0418 38.1126 14.3689 37.7153 13.7184" fill="#421C67"/>
<path d="M9.6287 12.8497C9.25718 12.2316 8.8308 11.9044 8.39648 11.9044C7.96217 11.9044 7.53711 12.231 7.16427 12.8477C5.91179 14.9266 4.66195 17.0065 3.41475 19.0875L2.01397 21.421C1.85488 21.6854 1.69512 21.9499 1.53471 22.2143C1.15195 22.8482 0.755979 23.5033 0.377193 24.1545C0.224862 24.3544 0.128373 24.5913 0.0975939 24.8408C0.0668146 25.0903 0.102849 25.3434 0.202013 25.5744C0.355025 25.7822 0.559632 25.9463 0.795581 26.0507C1.03153 26.155 1.29064 26.1959 1.54727 26.1694C1.65766 26.1694 1.76872 26.1747 1.87779 26.178C2.21469 26.1961 2.55243 26.1906 2.88855 26.1614C2.99036 26.1346 3.09667 26.1294 3.20062 26.1461C3.30457 26.1628 3.40387 26.2012 3.4921 26.2586C3.55845 26.3471 3.60594 26.4483 3.63164 26.5558C3.65733 26.6634 3.66069 26.7751 3.6415 26.884C3.59192 28.4633 3.60977 30.0709 3.62629 31.6244L3.63026 32.0026C3.6134 32.167 3.6313 32.3332 3.68279 32.4904C3.73428 32.6475 3.81822 32.792 3.92917 32.9146C4.04011 33.0372 4.17558 33.1351 4.3268 33.202C4.47801 33.2689 4.6416 33.3033 4.80694 33.3029H4.82148C4.97089 33.3076 5.11975 33.2826 5.25944 33.2294C5.39913 33.1762 5.52686 33.0958 5.63525 32.9928C5.75613 32.8634 5.84997 32.7111 5.91127 32.5449C5.97256 32.3787 6.00008 32.202 5.99222 32.025C6.00478 29.7484 6.00478 27.428 5.99222 25.1282C6.01431 24.9507 5.99594 24.7704 5.93848 24.601C5.88102 24.4315 5.78597 24.2773 5.66045 24.1498C5.53492 24.0223 5.38217 23.9248 5.21364 23.8647C5.04511 23.8047 4.86517 23.7835 4.68729 23.8028C4.39378 23.7883 4.10225 23.7916 3.76181 23.7949L3.3579 23.7982L8.39516 15.4107L13.3809 23.7202C13.2492 23.7887 13.0994 23.8142 12.9525 23.7929C12.8957 23.7899 12.8388 23.7899 12.7819 23.7929C12.6676 23.8002 12.5499 23.7982 12.4355 23.7968C12.3033 23.7968 12.1711 23.7935 12.0389 23.8035C11.8735 23.7938 11.7079 23.8186 11.5526 23.8764C11.3973 23.9341 11.2558 24.0236 11.137 24.1391C11.0181 24.2545 10.9246 24.3935 10.8624 24.547C10.8002 24.7006 10.7707 24.8654 10.7756 25.031C10.7399 26.2447 10.7399 42.1412 10.7756 43.3205C10.7732 43.4978 10.8084 43.6736 10.8788 43.8363C10.9492 43.999 11.0533 44.1449 11.1842 44.2645C11.3974 44.4414 11.6674 44.5353 11.9444 44.5289C12.0025 44.5289 12.0606 44.5254 12.1182 44.5184C12.809 44.4351 13.1237 43.973 13.1376 43.0191C13.1376 42.8968 13.133 42.2774 13.1244 41.3393C13.0893 37.73 12.9816 26.7452 13.2334 26.3188C13.4794 26.0061 13.9652 26.0649 14.4789 26.1284C14.7015 26.161 14.9262 26.1776 15.1512 26.178C15.4228 26.2072 15.6973 26.1652 15.9478 26.0561C16.1983 25.947 16.4161 25.7747 16.5797 25.5559C16.675 25.3023 16.7027 25.0283 16.6599 24.7607C16.6171 24.4932 16.5054 24.2414 16.3358 24.0302C14.3248 20.6687 12.1308 17.0118 9.62803 12.8491" fill="#9057CD"/>
<path d="M56.9314 24.2906C54.6772 20.4955 52.3186 16.5629 49.9202 12.6005C49.8292 12.3915 49.6792 12.2136 49.4887 12.0886C49.2981 11.9635 49.0752 11.8967 48.8473 11.8962C48.6194 11.8958 48.3963 11.9618 48.2053 12.0862C48.0143 12.2106 47.8636 12.3879 47.7718 12.5965C45.347 16.6032 42.9877 20.5358 40.7586 24.2867C40.6301 24.468 40.5524 24.6804 40.5337 24.9018C40.515 25.1233 40.5559 25.3457 40.6522 25.546C40.7815 25.7461 40.9611 25.9087 41.1731 26.0174C41.3851 26.1262 41.622 26.1772 41.86 26.1654C42.3888 26.1813 42.9838 26.1991 43.5721 26.1614C43.648 26.1468 43.7261 26.1479 43.8016 26.1646C43.8771 26.1813 43.9484 26.2133 44.011 26.2586C44.0588 26.3257 44.0922 26.4018 44.1093 26.4823C44.1263 26.5628 44.1266 26.646 44.1102 26.7266C44.0686 27.3996 44.1029 43.1209 44.1056 43.2385C44.1267 44.0563 44.5518 44.5269 45.271 44.5302H45.2783C45.4435 44.5344 45.6078 44.5034 45.7601 44.4393C45.9125 44.3752 46.0494 44.2794 46.162 44.1583C46.2745 44.0372 46.36 43.8936 46.4128 43.737C46.4656 43.5803 46.4845 43.4143 46.4682 43.2498C46.4946 42.126 46.494 26.1879 46.4682 25.109C46.4807 24.9312 46.4543 24.7528 46.3909 24.5862C46.3275 24.4196 46.2286 24.2688 46.101 24.1443C45.9734 24.0198 45.8202 23.9246 45.6521 23.8653C45.484 23.8059 45.305 23.7839 45.1276 23.8008C44.8347 23.7869 44.5445 23.7902 44.2074 23.7935H43.8107L48.848 15.408L53.8793 23.8034C53.7312 23.8034 53.5918 23.8034 53.4582 23.7995C53.0999 23.7948 52.7905 23.7909 52.4792 23.8094C51.7124 23.8543 51.2675 24.2523 51.2595 24.9021C51.2238 27.7704 51.2252 30.1033 51.2642 32.2451C51.2661 32.4425 51.3228 32.6355 51.4278 32.8026C51.5328 32.9697 51.6821 33.1044 51.8591 33.1918C52.053 33.2899 52.2699 33.3331 52.4866 33.3167C52.7032 33.3002 52.9112 33.2248 53.088 33.0986C53.273 32.9539 53.4182 32.7647 53.5101 32.5486C53.602 32.3325 53.6376 32.0966 53.6136 31.8631C53.6136 31.2681 53.6136 30.6732 53.6136 30.0828C53.6136 28.9888 53.6195 27.8577 53.599 26.7452C53.5857 26.6602 53.5895 26.5734 53.6103 26.49C53.6311 26.4065 53.6684 26.3281 53.72 26.2593C53.7886 26.2123 53.8661 26.1798 53.9477 26.1636C54.0293 26.1475 54.1133 26.1481 54.1946 26.1654C54.7402 26.1945 55.287 26.1961 55.8327 26.17C56.0703 26.1823 56.3069 26.132 56.5189 26.0243C56.731 25.9165 56.911 25.755 57.0411 25.5559C57.1364 25.3548 57.1763 25.1319 57.1565 24.9103C57.1367 24.6887 57.0581 24.4763 56.9288 24.2953" fill="#9057CD"/>
</g>
</svg>
