<svg width="55" height="55" viewBox="0 0 55 55" fill="none" xmlns="http://www.w3.org/2000/svg">
<mask id="mask0_1_3482" style="mask-type:luminance" maskUnits="userSpaceOnUse" x="0" y="0" width="55" height="55">
<path d="M54.8646 0.360596H0.401367V54.8119H54.8646V0.360596Z" fill="white"/>
</mask>
<g mask="url(#mask0_1_3482)">
<path d="M54.8645 27.6199C54.8645 28.4061 54.8325 29.1994 54.7686 29.9997C54.2572 35.8229 51.8847 41.3267 48.0022 45.6967C44.1196 50.0667 38.9334 53.0707 33.211 54.2641C27.4885 55.4575 21.5339 54.777 16.2282 52.3232C10.9226 49.8694 6.54791 45.7728 3.75149 40.6395C1.57168 36.695 0.419555 32.2654 0.401246 27.7587C0.373041 27.4457 0.441104 27.1314 0.596331 26.8581C0.751558 26.5847 0.986549 26.3652 1.26988 26.2291C1.48516 26.1176 1.72355 26.058 1.96597 26.0552C2.29715 26.0608 2.61735 26.1749 2.87757 26.3798C3.09092 26.5485 3.25932 26.7673 3.36784 27.0167C3.47635 27.2662 3.52162 27.5385 3.49962 27.8096C3.49926 31.5692 4.41502 35.2721 6.16765 38.5981C9.95155 45.6893 15.7993 49.9862 23.5482 51.3731C24.9229 51.6183 26.3165 51.7419 27.7128 51.7426C33.6891 51.7348 39.4499 49.5094 43.8794 45.4974C48.3088 41.4855 51.0918 35.9724 51.6892 30.026C52.2867 24.0797 50.656 18.1232 47.1132 13.3102C43.5704 8.49727 38.3674 5.17037 32.5121 3.97389C24.6145 2.351 17.4797 4.3269 11.3008 9.85731C11.2188 9.92936 11.1362 10.0021 11.0363 10.084L10.686 10.3895L10.9028 10.5051C11.1079 10.6163 11.3419 10.6624 11.5738 10.6374C11.6088 10.6374 11.6445 10.6334 11.6756 10.6334C12.4402 10.6334 13.2048 10.6334 13.9695 10.6334C15.043 10.6334 16.1181 10.6347 17.1948 10.6374C17.5843 10.6084 17.971 10.7234 18.2814 10.9607C18.5918 11.1979 18.8042 11.5409 18.8785 11.9244C18.9157 12.1449 18.9047 12.3708 18.8463 12.5866C18.7879 12.8024 18.6834 13.0029 18.54 13.1745C18.3876 13.3483 18.1991 13.4866 17.9876 13.5799C17.7761 13.6732 17.5468 13.7192 17.3157 13.7146C15.9777 13.7265 14.6305 13.7245 13.3276 13.7225C12.7802 13.7225 12.2243 13.7225 11.6848 13.7225H10.3978C9.34007 13.7225 8.28238 13.7265 7.22931 13.7225C7.00927 13.7437 6.78725 13.7172 6.57837 13.6449C6.36949 13.5725 6.17865 13.456 6.01887 13.3032C5.85908 13.1505 5.7341 12.9651 5.65243 12.7596C5.57076 12.5542 5.53432 12.3336 5.5456 12.1128C5.52775 8.72954 5.52775 5.31452 5.5456 1.96824C5.54242 1.74684 5.58446 1.52711 5.66915 1.32251C5.75383 1.11791 5.87937 0.932743 6.03809 0.77834C6.18178 0.63836 6.35248 0.529123 6.53979 0.457294C6.72709 0.385464 6.92706 0.352547 7.12751 0.360551C7.33364 0.36929 7.536 0.418672 7.72299 0.50586C7.90997 0.593047 8.07789 0.716323 8.21708 0.868603C8.35628 1.02088 8.46401 1.19917 8.53409 1.39321C8.60418 1.58725 8.63523 1.79323 8.62547 1.99931C8.62943 3.20023 8.62943 4.4005 8.62547 5.60009V8.04601L8.90509 7.81728C9.13602 7.62558 9.36232 7.43717 9.584 7.25208L9.72282 7.13639C10.2649 6.68092 10.7772 6.25256 11.3127 5.84535C14.2077 3.66043 17.5113 2.07791 21.0282 1.19129C24.5451 0.304676 28.2041 0.131942 31.789 0.683298C35.3738 1.23465 38.8117 2.49892 41.8997 4.40139C44.9877 6.30386 47.6631 8.80595 49.7677 11.7598C53.1024 16.372 54.8864 21.9239 54.8625 27.6153" fill="#9057CD"/>
<path d="M34.2726 30.3732C34.4307 31.588 34.1344 32.8184 33.4406 33.828C32.7469 34.8377 31.7045 35.5554 30.5139 35.8435C30.4279 35.8653 30.342 35.8864 30.2554 35.9023C29.2367 36.0682 29.1759 36.1409 29.1739 37.2046V37.4611C29.1739 37.6118 29.1739 37.7665 29.166 37.9165C29.1565 38.3133 28.9928 38.6907 28.7097 38.9686C28.4265 39.2466 28.0461 39.4033 27.6493 39.4053C27.2525 39.4074 26.8705 39.2547 26.5844 38.9797C26.2983 38.7047 26.1307 38.329 26.1172 37.9324C26.0934 37.4921 26.092 37.0508 26.1132 36.6103C26.1329 36.5279 26.1318 36.442 26.11 36.3602C26.0882 36.2783 26.0464 36.2032 25.9884 36.1415C25.9304 36.0798 25.858 36.0335 25.7776 36.0068C25.6973 35.98 25.6116 35.9737 25.5282 35.9882H25.4951C24.7151 36.0041 23.9185 36.0001 23.1503 35.9962H22.7121C22.4932 36.0219 22.2713 36.0009 22.0612 35.9345C21.851 35.8682 21.6574 35.758 21.4929 35.6113C21.3285 35.4646 21.1971 35.2846 21.1073 35.0834C21.0175 34.8821 20.9715 34.6641 20.9722 34.4437C20.9729 34.2233 21.0203 34.0056 21.1114 33.8049C21.2024 33.6042 21.335 33.4252 21.5004 33.2795C21.6658 33.1338 21.8602 33.0249 22.0707 32.9599C22.2813 32.8949 22.5033 32.8753 22.722 32.9024C23.2753 32.8985 23.8273 32.9024 24.3786 32.9024H26.9508C27.7156 32.9024 28.4785 32.9024 29.2426 32.9024C29.4928 32.9118 29.7423 32.8712 29.9766 32.7831C30.2109 32.695 30.4253 32.5611 30.6072 32.3892C30.7892 32.2173 30.9351 32.0109 31.0365 31.782C31.1378 31.5531 31.1925 31.3064 31.1974 31.0561C31.2024 30.8058 31.1574 30.5571 31.0651 30.3244C30.9728 30.0917 30.8352 29.8797 30.6601 29.7008C30.485 29.5219 30.276 29.3797 30.0454 29.2824C29.8147 29.1852 29.567 29.1349 29.3167 29.1344C28.7065 29.1185 28.0944 29.1205 27.5193 29.1245H27.3494C26.845 29.1245 26.3188 29.1284 25.8065 29.1165C24.6036 29.0844 23.4535 28.6158 22.5706 27.7982C21.6877 26.9807 21.1322 25.8699 21.0078 24.6731C20.8833 23.4762 21.1984 22.275 21.8943 21.2933C22.5901 20.3116 23.6192 19.6165 24.7898 19.3375C24.8076 19.3336 24.8248 19.3296 24.8559 19.3197L24.8988 19.3078C25.0148 19.2844 25.1329 19.274 25.2512 19.2767C25.5229 19.2708 25.8633 19.2628 26.0299 18.9713C26.1397 18.7068 26.1716 18.4164 26.1218 18.1344L26.1178 18.0875C26.1119 17.9896 26.1039 17.8891 26.1059 17.7979C26.1059 17.7177 26.1059 17.6375 26.1059 17.5573C26.0907 17.3199 26.113 17.0817 26.172 16.8513C26.2833 16.5155 26.5062 16.2279 26.8036 16.0365C27.1011 15.845 27.4551 15.7611 27.8068 15.7989C28.16 15.8295 28.4904 15.9859 28.738 16.2396C28.9856 16.4933 29.1339 16.8274 29.156 17.1812C29.184 17.6579 29.188 18.1358 29.1679 18.613C29.1566 18.693 29.1626 18.7745 29.1854 18.8521C29.2082 18.9296 29.2473 19.0014 29.3002 19.0625C29.3627 19.1178 29.4364 19.1589 29.5162 19.1832C29.5961 19.2075 29.6802 19.2144 29.7629 19.2033C30.5667 19.1894 31.3785 19.1934 32.1645 19.1974H32.544C32.7626 19.1698 32.9846 19.1885 33.1955 19.2523C33.4064 19.316 33.6016 19.4234 33.7683 19.5675C33.935 19.7115 34.0696 19.889 34.1634 20.0884C34.2571 20.2879 34.3078 20.5048 34.3123 20.7251C34.3202 20.9217 34.2884 21.1179 34.2189 21.302C34.1494 21.4861 34.0436 21.6543 33.9077 21.7967C33.7228 21.9662 33.506 22.0973 33.27 22.1823C33.0339 22.2674 32.7833 22.3046 32.5327 22.2918C31.8168 22.2918 31.1009 22.2918 30.3849 22.2918H29.3094C28.2473 22.2918 27.1859 22.2918 26.1251 22.2918C25.8662 22.2694 25.6055 22.2999 25.3588 22.3813C25.1121 22.4628 24.8845 22.5936 24.6899 22.7657C24.4953 22.9378 24.3377 23.1477 24.2266 23.3826C24.1156 23.6175 24.0535 23.8725 24.0441 24.1322C24.0359 24.3714 24.0755 24.6098 24.1608 24.8335C24.2461 25.0571 24.3752 25.2614 24.5405 25.4345C24.7473 25.638 24.9924 25.7983 25.2618 25.9061C25.5311 26.014 25.8192 26.0671 26.1092 26.0625C26.6096 26.0684 27.1167 26.0664 27.6072 26.0625H27.789C28.3343 26.0625 28.8996 26.0585 29.4515 26.0704C30.6507 26.1016 31.7999 26.5577 32.694 27.3575C33.5786 28.1287 34.1424 29.2031 34.2746 30.3693" fill="#421C67"/>
</g>
</svg>
