<svg width="59" height="51" viewBox="0 0 59 51" fill="none" xmlns="http://www.w3.org/2000/svg">
<mask id="mask0_1_3442" style="mask-type:luminance" maskUnits="userSpaceOnUse" x="0" y="0" width="59" height="51">
<path d="M58.5856 0.844849H0.418457V50.4262H58.5856V0.844849Z" fill="white"/>
</mask>
<g mask="url(#mask0_1_3442)">
<path d="M33.7955 50.4242C27.6633 50.4291 21.7479 48.1564 17.1964 44.047C16.9173 43.7857 16.752 43.4254 16.7359 43.0435C16.7198 42.6616 16.8542 42.2886 17.1102 42.0048C17.3663 41.7209 17.7234 41.5489 18.105 41.5257C18.4865 41.5025 18.8619 41.63 19.1505 41.8807C21.7866 44.2577 24.9615 45.9574 28.4013 46.8333C31.841 47.7091 35.4423 47.7347 38.8941 46.9078C42.346 46.0809 45.5447 44.4264 48.2143 42.0871C50.8839 39.7478 52.9441 36.794 54.2171 33.4806C55.4901 30.1672 55.9377 26.5938 55.5211 23.0689C55.1046 19.5439 53.8364 16.1732 51.8262 13.2478C49.816 10.3224 47.124 7.93016 43.9827 6.27755C40.8414 4.62494 37.345 3.76162 33.7955 3.7621C28.976 3.74611 24.2888 5.33745 20.4752 8.2844C16.7378 11.1648 14.0242 15.1693 12.7342 19.7081C12.6824 19.8926 12.5948 20.065 12.4764 20.2156C12.358 20.3661 12.2111 20.4919 12.0441 20.5857C11.877 20.6795 11.6932 20.7395 11.503 20.7622C11.3128 20.785 11.1199 20.77 10.9355 20.7182C10.7511 20.6665 10.5786 20.5788 10.4281 20.4604C10.2775 20.342 10.1517 20.1951 10.0579 20.0281C9.96412 19.861 9.90414 19.6772 9.88141 19.487C9.85867 19.2967 9.87362 19.1039 9.9254 18.9195C11.3868 13.7755 14.4616 9.23678 18.697 5.97202C23.0196 2.63136 28.3325 0.827179 33.7955 0.844855C40.3702 0.844855 46.6755 3.45662 51.3245 8.10558C55.9734 12.7545 58.5852 19.0599 58.5852 25.6345C58.5852 32.2091 55.9734 38.5145 51.3245 43.1635C46.6755 47.8124 40.3702 50.4242 33.7955 50.4242Z" fill="#9057CD"/>
<path d="M44.8549 35.005C44.6139 35.0049 44.3768 34.9449 44.1647 34.8305L31.7554 28.1498V15.1376C31.7554 14.7507 31.909 14.3797 32.1826 14.1062C32.4561 13.8326 32.8271 13.679 33.214 13.679C33.6008 13.679 33.9718 13.8326 34.2454 14.1062C34.5189 14.3797 34.6726 14.7507 34.6726 15.1376V26.4113L45.5477 32.2656C45.8337 32.4197 46.0602 32.6649 46.1911 32.9622C46.322 33.2596 46.3499 33.5922 46.2703 33.9072C46.1907 34.2223 46.0083 34.5017 45.7519 34.7013C45.4955 34.9009 45.1798 35.0092 44.8549 35.009" fill="#421C67"/>
<path d="M18.9501 27.0941H1.87761C1.49613 27.086 1.13302 26.9288 0.866103 26.6561C0.599186 26.3834 0.449707 26.0171 0.449707 25.6355C0.449707 25.2539 0.599186 24.8876 0.866103 24.6149C1.13302 24.3422 1.49613 24.185 1.87761 24.1769H18.9501C19.3316 24.185 19.6947 24.3422 19.9616 24.6149C20.2285 24.8876 20.378 25.2539 20.378 25.6355C20.378 26.0171 20.2285 26.3834 19.9616 26.6561C19.6947 26.9288 19.3316 27.086 18.9501 27.0941Z" fill="#421C67"/>
<path d="M50.8472 27.0948C50.7516 27.0947 50.6562 27.0854 50.5623 27.067C50.4695 27.0473 50.3786 27.0194 50.2906 26.9837C50.2027 26.9476 50.1184 26.9033 50.0388 26.8515C49.9588 26.7983 49.8842 26.7374 49.816 26.6697C49.6128 26.4657 49.4748 26.206 49.4193 25.9234C49.3804 25.7352 49.3804 25.5411 49.4193 25.3529C49.4384 25.2595 49.4661 25.1682 49.502 25.0799C49.576 24.9035 49.6831 24.7429 49.8173 24.6066C49.8852 24.5385 49.9598 24.4776 50.0401 24.4248C50.1197 24.373 50.2041 24.3287 50.2919 24.2926C50.3799 24.2568 50.4708 24.2289 50.5636 24.2093C50.752 24.1722 50.9458 24.1722 51.1341 24.2093C51.2274 24.2289 51.3188 24.2568 51.4071 24.2926C51.4948 24.3293 51.579 24.3735 51.659 24.4248C51.8187 24.5313 51.9557 24.6684 52.0623 24.828C52.1136 24.908 52.1578 24.9923 52.1945 25.0799C52.2307 25.1681 52.2586 25.2595 52.2778 25.3529C52.3151 25.5412 52.3151 25.7351 52.2778 25.9234C52.2586 26.0168 52.2307 26.1082 52.1945 26.1964C52.1578 26.2841 52.1136 26.3683 52.0623 26.4483C52.0091 26.5279 51.9482 26.6021 51.8805 26.6697C51.8124 26.7371 51.7383 26.7979 51.659 26.8515C51.4996 26.957 51.3214 27.0308 51.1341 27.069C51.0403 27.0875 50.9449 27.0967 50.8492 27.0968" fill="#421C67"/>
<path d="M34.2297 43.9465C34.134 43.9461 34.0386 43.9364 33.9448 43.9174C33.5664 43.841 33.2336 43.6178 33.0193 43.2967C32.9665 43.2176 32.9222 43.1332 32.8871 43.0448C32.8502 42.9573 32.8223 42.8663 32.8038 42.7731C32.7666 42.5848 32.7666 42.391 32.8038 42.2026C32.8223 42.109 32.8502 42.0176 32.8871 41.9296C32.9598 41.7525 33.067 41.5916 33.2025 41.4563C33.4071 41.2539 33.6666 41.116 33.9488 41.0597C34.1367 41.0224 34.3301 41.0224 34.518 41.0597C34.7053 41.0978 34.8835 41.1716 35.0428 41.2771C35.1227 41.33 35.1969 41.3909 35.2643 41.4589C35.332 41.5266 35.3929 41.6008 35.4461 41.6804C35.4984 41.7598 35.5426 41.8441 35.5783 41.9323C35.6152 42.0202 35.6431 42.1117 35.6616 42.2053C35.6987 42.3936 35.6987 42.5874 35.6616 42.7758C35.6431 42.8689 35.6152 42.9599 35.5783 43.0474C35.5432 43.1358 35.4989 43.2202 35.4461 43.2993C35.2309 43.6196 34.8986 43.8425 34.5206 43.92C34.4272 43.939 34.3323 43.9488 34.237 43.9491" fill="#421C67"/>
<path d="M20.5203 38.1603H12.6233C12.4291 38.1644 12.2361 38.1297 12.0555 38.0583C11.8749 37.9868 11.7104 37.88 11.5717 37.7442C11.4329 37.6083 11.3226 37.4461 11.2473 37.2671C11.1721 37.0881 11.1333 36.8958 11.1333 36.7016C11.1333 36.5074 11.1721 36.3152 11.2473 36.1361C11.3226 35.9571 11.4329 35.7949 11.5717 35.6591C11.7104 35.5232 11.8749 35.4164 12.0555 35.345C12.2361 35.2735 12.4291 35.2389 12.6233 35.243H20.5203C20.7145 35.2389 20.9075 35.2735 21.0881 35.345C21.2687 35.4164 21.4332 35.5232 21.572 35.6591C21.7107 35.7949 21.821 35.9571 21.8963 36.1361C21.9715 36.3152 22.0103 36.5074 22.0103 36.7016C22.0103 36.8958 21.9715 37.0881 21.8963 37.2671C21.821 37.4461 21.7107 37.6083 21.572 37.7442C21.4332 37.88 21.2687 37.9868 21.0881 38.0583C20.9075 38.1297 20.7145 38.1644 20.5203 38.1603Z" fill="#421C67"/>
<path d="M13.2491 16.032H3.57448C3.38032 16.0362 3.18729 16.0015 3.0067 15.93C2.82611 15.8586 2.66161 15.7518 2.52283 15.616C2.38405 15.4801 2.27379 15.3179 2.19852 15.1389C2.12325 14.9599 2.08447 14.7676 2.08447 14.5734C2.08447 14.3792 2.12325 14.1869 2.19852 14.0079C2.27379 13.8289 2.38405 13.6667 2.52283 13.5308C2.66161 13.395 2.82611 13.2882 3.0067 13.2168C3.18729 13.1453 3.38032 13.1106 3.57448 13.1148H13.2491C13.4432 13.1106 13.6363 13.1453 13.8168 13.2168C13.9974 13.2882 14.1619 13.395 14.3007 13.5308C14.4395 13.6667 14.5497 13.8289 14.625 14.0079C14.7003 14.1869 14.7391 14.3792 14.7391 14.5734C14.7391 14.7676 14.7003 14.9599 14.625 15.1389C14.5497 15.3179 14.4395 15.4801 14.3007 15.616C14.1619 15.7518 13.9974 15.8586 13.8168 15.93C13.6363 16.0015 13.4432 16.0362 13.2491 16.032Z" fill="#9057CD"/>
<path d="M6.92917 38.1603H4.907C4.71284 38.1644 4.5198 38.1297 4.33922 38.0583C4.15863 37.9868 3.99413 37.88 3.85535 37.7442C3.71657 37.6083 3.60631 37.4461 3.53104 37.2671C3.45577 37.0881 3.41699 36.8958 3.41699 36.7016C3.41699 36.5074 3.45577 36.3152 3.53104 36.1361C3.60631 35.9571 3.71657 35.7949 3.85535 35.6591C3.99413 35.5232 4.15863 35.4164 4.33922 35.345C4.5198 35.2735 4.71284 35.2389 4.907 35.243H6.92917C7.12334 35.2389 7.31637 35.2735 7.49696 35.345C7.67754 35.4164 7.84205 35.5232 7.98083 35.6591C8.11961 35.7949 8.22986 35.9571 8.30514 36.1361C8.38041 36.3152 8.41918 36.5074 8.41918 36.7016C8.41918 36.8958 8.38041 37.0881 8.30514 37.2671C8.22986 37.4461 8.11961 37.6083 7.98083 37.7442C7.84205 37.88 7.67754 37.9868 7.49696 38.0583C7.31637 38.1297 7.12334 38.1644 6.92917 38.1603Z" fill="#421C67"/>
</g>
</svg>
