<svg width="69" height="50" viewBox="0 0 69 50" fill="none" xmlns="http://www.w3.org/2000/svg">
<mask id="mask0_1_3539" style="mask-type:luminance" maskUnits="userSpaceOnUse" x="0" y="0" width="69" height="50">
<path d="M68.6854 0.971191H0.98584V49.2033H68.6854V0.971191Z" fill="white"/>
</mask>
<g mask="url(#mask0_1_3539)">
<path d="M68.6781 24.6906V24.5082C68.6781 23.7579 68.6827 22.9818 68.6582 22.2229C68.602 20.5748 68.0292 18.9861 67.0209 17.6813C66.0127 16.3764 64.6198 15.4214 63.0392 14.9512C62.794 14.8812 62.5382 14.819 62.2757 14.7642H61.5849L62.0642 14.2161C62.7603 13.4653 63.3017 12.5846 63.6574 11.6244C64.0131 10.6643 64.1762 9.64347 64.1373 8.62029C64.1211 7.53885 63.8745 6.4733 63.414 5.49468C62.9534 4.51607 62.2896 3.64689 61.4666 2.94511C60.3857 1.99877 59.0651 1.36842 57.6496 1.1232C56.2341 0.877988 54.7784 1.02739 53.4422 1.55501C52.106 2.08263 50.9409 2.96809 50.0748 4.11424C49.2087 5.26039 48.6751 6.62296 48.5323 8.05244C48.4174 9.16527 48.5386 10.2898 48.8879 11.3526C49.2373 12.4154 49.807 13.3925 50.5598 14.2201L50.9095 14.6293L50.3892 14.7569C49.2187 14.9833 48.1127 15.4655 47.1501 16.1689C46.4612 16.6792 46.1836 16.8928 46.1724 17.1056V17.1169C46.1724 17.3277 46.45 17.5895 47.0212 18.1045L47.0542 18.1329C47.0674 18.1441 47.0807 18.1574 47.0959 18.1679C47.1439 18.209 47.1892 18.2531 47.2314 18.3002C47.3451 18.4429 47.4416 18.511 47.5289 18.5157C47.6611 18.5269 47.8065 18.3993 47.905 18.3048C48.8812 17.3235 50.2063 16.769 51.5904 16.7625C54.1685 16.7361 57.5697 16.7116 61.0561 16.7625C62.3484 16.8055 63.5874 17.2879 64.5684 18.1302C65.5494 18.9725 66.2137 20.1243 66.4516 21.3952C66.5689 22.1252 66.6086 22.8655 66.57 23.6038C66.5653 23.8392 66.5614 24.0765 66.5634 24.3145C66.5719 25.5044 66.5746 26.1575 66.2705 26.5621C65.9684 26.9587 65.4151 27.1101 64.1928 27.4175C60.39 28.3073 56.4626 28.5371 52.582 28.097L52.4418 28.0858C52.9847 28.7843 53.4566 29.5353 53.8506 30.3274L54.384 30.3519C55.0451 30.385 55.718 30.4002 56.3963 30.4002C58.6911 30.4042 60.9818 30.2051 63.2415 29.8052C64.9142 29.5683 66.5209 28.9927 67.9635 28.1136C68.197 27.9778 68.3878 27.7793 68.5142 27.5406C68.6407 27.3019 68.6977 27.0325 68.6787 26.763C68.6675 26.1119 68.6675 25.4627 68.6721 24.6886M56.3256 14.6253H56.3123C55.5577 14.6256 54.8105 14.4754 54.1146 14.1834C53.4187 13.8915 52.788 13.4637 52.2594 12.9251C51.33 11.9844 50.7551 10.7508 50.6325 9.43408C50.51 8.11737 50.8474 6.79886 51.5872 5.70281C52.3271 4.60675 53.4238 3.80082 54.6908 3.42209C55.9578 3.04337 57.3169 3.11522 58.5369 3.62544C59.7569 4.13567 60.7625 5.05274 61.3827 6.22071C62.0028 7.38867 62.1993 8.7354 61.9386 10.0318C61.6778 11.3283 60.9761 12.4944 59.9527 13.3319C58.9292 14.1693 57.6473 14.6264 56.3249 14.6253" fill="#9057CD"/>
<path d="M54.0731 30.8146L53.8562 30.326C53.4623 29.5339 52.9904 28.783 52.4475 28.0844L52.3603 27.9747C50.9669 26.2171 49.1461 24.8463 47.0718 23.9931L46.925 23.9336L46.8814 23.7816C45.9824 20.7724 43.9814 18.9334 40.762 18.1573L40.2332 18.0297L40.5941 17.6185C41.9471 16.1548 42.6896 14.2294 42.6698 12.2362C42.678 11.1786 42.4676 10.1308 42.0517 9.15839C41.6358 8.186 41.0234 7.31004 40.253 6.58548C38.9202 5.30918 37.1792 4.54498 35.3375 4.42789C33.4959 4.31079 31.6721 4.84835 30.1884 5.94558C28.6589 7.06081 27.5969 8.70331 27.2077 10.5558C26.9287 11.8024 26.9544 13.0979 27.2826 14.3324C27.6108 15.567 28.2318 16.7042 29.093 17.6476L29.4559 18.0786L28.9046 18.1844C27.3038 18.4762 25.8351 19.2634 24.7057 20.4348C23.5763 21.6062 22.8433 23.1026 22.61 24.713C22.4715 25.8409 22.4297 26.9785 22.4851 28.1135C22.4983 28.7494 22.5135 29.4706 22.4851 30.1628C22.4624 30.4441 22.522 30.726 22.6568 30.974C22.7915 31.2221 22.9956 31.4255 23.244 31.5596C24.4837 32.3156 25.8538 32.8333 27.2837 33.086C27.8985 33.2182 28.5106 33.3279 29.1009 33.4165L29.4354 33.4648L29.3766 33.8012C29.2403 34.5665 29.1715 35.3423 29.171 36.1196C29.1698 38.2565 29.6915 40.3614 30.6906 42.2504C31.6898 44.1394 33.136 45.7552 34.903 46.9569L34.9731 47.0032C37.1012 48.4403 39.6108 49.2073 42.1786 49.2052C44.3515 49.1925 46.487 48.6391 48.3925 47.5948C50.2979 46.5506 51.9135 45.0484 53.0933 43.2238C54.2732 41.3991 54.9803 39.3095 55.1507 37.1433C55.3212 34.9771 54.9497 32.8026 54.0698 30.8159M29.1161 12.1899C29.1355 10.6826 29.7459 9.24318 30.816 8.18141C31.886 7.11964 33.3302 6.52044 34.8376 6.51277H34.872C36.3981 6.53247 37.8544 7.15536 38.9227 8.24536C39.991 9.33536 40.5846 10.8039 40.5736 12.3301C40.5635 13.8481 39.9528 15.3003 38.8752 16.3694C37.7975 17.4386 36.3404 18.0376 34.8224 18.0357H34.7768C34.0265 18.0306 33.2849 17.8756 32.5953 17.5799C31.9058 17.2842 31.2823 16.8536 30.7615 16.3136C30.2288 15.769 29.8091 15.1243 29.5265 14.4169C29.2439 13.7094 29.104 12.953 29.1148 12.1913M30.0403 31.4095L29.7891 31.3765C29.0566 31.2753 28.2978 31.1411 27.5323 30.9759C26.6965 30.8035 25.8829 30.5374 25.1068 30.1826L25.0196 30.1429C24.8272 30.0596 24.5753 29.9492 24.5866 29.5817C24.613 29.0317 24.5998 28.4711 24.5866 27.9291V27.8563C24.5281 26.8408 24.5724 25.8221 24.7188 24.8155C24.952 23.5327 25.62 22.3694 26.6102 21.5214C27.6005 20.6733 28.8526 20.1922 30.156 20.159C30.6921 20.1477 31.2798 20.1411 31.958 20.1411C32.4499 20.1411 32.9397 20.1411 33.4236 20.1477C33.883 20.1477 34.3491 20.1524 34.8118 20.1524L35.1377 20.1477H35.1463C35.5158 20.1477 35.8854 20.1477 36.2549 20.1477C37.2392 20.1477 38.2539 20.1431 39.2687 20.1524C40.2095 20.1387 41.1394 20.3557 41.9771 20.7844C42.8147 21.2131 43.5346 21.8404 44.0739 22.6115L44.4871 23.2164L43.7599 23.1265C40.92 22.7777 38.0445 23.3773 35.5807 24.8321C33.1169 26.2868 31.203 28.5151 30.1368 31.1702L30.0403 31.4095ZM42.1786 46.6753C40.3624 46.6747 38.5778 46.1994 37.0019 45.2964C35.3874 44.3681 34.0462 43.0307 33.1133 41.4189C32.1805 39.8071 31.6889 37.9779 31.6883 36.1156C31.6872 35.4031 31.7598 34.6924 31.9051 33.9949C32.1842 32.5923 32.7475 31.2616 33.5603 30.0849C34.3732 28.9083 35.4184 27.9105 36.6316 27.1532C37.8448 26.3959 39.2002 25.895 40.6143 25.6814C42.0284 25.4679 43.4713 25.5462 44.854 25.9115C45.86 26.177 46.8201 26.5931 47.7018 27.1457C48.3553 27.5537 48.9624 28.0316 49.5124 28.5709C50.0047 29.056 50.4492 29.5873 50.8398 30.1575C51.9195 31.7403 52.5483 33.5868 52.6591 35.4996C52.7699 37.4123 52.3585 39.3192 51.4688 41.016C50.5792 42.7129 49.2448 44.1358 47.6086 45.1326C45.9724 46.1294 44.0959 46.6624 42.18 46.6747" fill="#421C67"/>
<path d="M23.3579 16.8603C23.2594 16.7836 23.1655 16.6997 23.0716 16.6164L23.0346 16.5813C22.9474 16.502 22.8594 16.4253 22.7702 16.3506C21.7631 15.5414 20.5716 14.9937 19.3016 14.7562L18.7569 14.6398L19.1225 14.2174C19.8404 13.441 20.3933 12.527 20.7478 11.5307C21.1023 10.5345 21.251 9.47664 21.185 8.42125C21.0793 6.42234 20.213 4.53957 18.7636 3.15899C17.3141 1.7784 15.3915 1.0046 13.3898 0.996253C11.4015 0.990106 9.48562 1.74191 8.03213 3.09862C6.57864 4.45533 5.69682 6.31497 5.56617 8.29896C5.43165 10.4718 6.16298 12.6094 7.60024 14.2445L7.9592 14.6735L7.4125 14.7793C5.81562 15.0725 4.35113 15.8598 3.22566 17.03C2.10019 18.2002 1.37056 19.6942 1.13973 21.3013C0.984457 22.5908 0.940224 23.8913 1.00752 25.1883C1.02272 25.7932 1.04057 26.4595 1.02735 27.1054C1.03572 27.2951 1.09294 27.4794 1.19346 27.6405C1.29399 27.8016 1.43442 27.934 1.60115 28.0249C2.40592 28.5879 3.30309 29.0057 4.25199 29.2591C7.09433 30.0468 10.0333 30.4311 12.9826 30.4008C14.9456 30.3932 16.9064 30.2691 18.8548 30.0292C19.5938 29.9433 19.931 29.8865 20.0685 29.6987C20.206 29.511 20.1471 29.1507 20.0023 28.3528L19.9891 28.2827C19.9039 27.8273 19.7987 27.7479 19.3572 27.82C16.1844 28.3167 12.9626 28.4201 9.76455 28.128C7.70951 28.009 5.68502 27.5744 3.76214 26.8396C3.5541 26.7885 3.37198 26.663 3.25018 26.4868C3.12839 26.3105 3.07535 26.0958 3.10109 25.8831C3.12951 25.2538 3.12488 24.6119 3.12092 23.9938V23.7102C3.12092 23.2832 3.11629 22.8389 3.12555 22.4033C3.13943 20.9119 3.73688 19.4852 4.7899 18.429C5.84292 17.3728 7.26773 16.771 8.75908 16.7526C11.6016 16.7215 14.4475 16.7347 17.2008 16.7479H18.0119C19.0923 16.775 20.1444 17.099 21.0528 17.6847C21.2086 17.7904 21.3486 17.9177 21.4686 18.0628L21.4838 18.0806C21.7528 18.3774 21.9346 18.5513 22.1971 18.472C22.4736 18.3537 22.7158 18.1675 22.9011 17.9306L22.9408 17.8889C23.0685 17.7496 23.2059 17.6195 23.3519 17.4996C23.5621 17.3435 23.5926 17.2312 23.5926 17.1763C23.5926 17.0864 23.5185 16.9826 23.3605 16.8577M13.3786 14.6226H13.3673C12.6125 14.6229 11.8652 14.4729 11.1691 14.1813C10.4729 13.8897 9.8417 13.4625 9.31238 12.9244C8.38248 11.9841 7.807 10.7507 7.68384 9.43405C7.56067 8.11736 7.89742 6.79866 8.63681 5.70224C9.3762 4.60582 10.4726 3.79939 11.7395 3.4201C13.0063 3.04081 14.3655 3.11209 15.5857 3.62182C16.806 4.13155 17.812 5.04825 18.4326 6.216C19.0533 7.38375 19.2502 8.73044 18.99 10.027C18.7298 11.3236 18.0285 12.49 17.0053 13.3278C15.9821 14.1657 14.701 14.6232 13.3786 14.6226Z" fill="#9057CD"/>
<path d="M49.0974 33.4165C49.0416 33.4846 48.9818 33.5493 48.9183 33.6102L48.8945 33.6347C47.2716 35.2648 46.0645 36.4111 44.8858 37.5256C43.7244 38.6256 42.5239 39.7627 40.9195 41.377C40.8141 41.5157 40.6773 41.6274 40.5203 41.703C40.3633 41.7786 40.1906 41.8159 40.0164 41.8119C39.8423 41.8078 39.6715 41.7625 39.5182 41.6796C39.365 41.5968 39.2335 41.4788 39.1346 41.3353C39.1346 41.3353 36.1645 38.0961 35.3884 37.244C35.276 37.1371 35.187 37.008 35.1271 36.8648C35.0672 36.7216 35.0378 36.5676 35.0407 36.4124C35.0386 36.2132 35.0945 36.0176 35.2017 35.8496C35.3089 35.6816 35.4627 35.5485 35.6443 35.4665C35.7905 35.3941 35.9511 35.3557 36.1143 35.3541C36.3603 35.358 36.5975 35.4464 36.7859 35.6046C36.854 35.6607 36.917 35.7226 36.9743 35.7897L37.558 36.4256C38.3213 37.2573 39.084 38.0908 39.8459 38.9264L40.0753 39.1816L40.3179 38.9377C41.6982 37.5607 42.7328 36.5843 43.7343 35.6383C44.7973 34.6375 45.8953 33.6016 47.4018 32.0884C47.5088 31.9637 47.6403 31.8622 47.7881 31.7903C47.936 31.7184 48.097 31.6777 48.2612 31.6707C48.3244 31.6711 48.3875 31.6771 48.4496 31.6885C48.6341 31.7194 48.8072 31.7981 48.9518 31.9167C49.0964 32.0353 49.2074 32.1897 49.2738 32.3645C49.3402 32.5393 49.3596 32.7285 49.3302 32.9132C49.3007 33.0979 49.2235 33.2716 49.106 33.4172" fill="#421C67"/>
</g>
</svg>
