<svg width="18" height="19" viewBox="0 0 18 19" fill="none" xmlns="http://www.w3.org/2000/svg">
<g clip-path="url(#clip0_1_4027)">
<g clip-path="url(#clip1_1_4027)">
<g clip-path="url(#clip2_1_4027)">
<path d="M9 18.88C13.9706 18.88 18 14.8506 18 9.88C18 4.90944 13.9706 0.880005 9 0.880005C4.02944 0.880005 0 4.90944 0 9.88C0 14.8506 4.02944 18.88 9 18.88Z" fill="#496E2D"/>
<path d="M5.08711 11.6378C5.08711 12.2882 5.61445 12.8156 6.26133 12.8156H9.78398C9.78398 13.0748 9.88695 13.3234 10.0702 13.5066C10.2535 13.6899 10.5021 13.7929 10.7613 13.7929H11.9355C12.1948 13.7929 12.4433 13.6899 12.6266 13.5066C12.8099 13.3234 12.9129 13.0748 12.9129 12.8156V11.6378H5.08711ZM13.0113 5.96712V8.7093C13.0113 9.13821 12.6598 9.48977 12.2273 9.48977V10.664C13.3066 10.664 14.1855 9.78509 14.1855 8.70579V5.96712H13.0078H13.0113ZM4.59844 8.7093C4.59844 9.13821 4.24688 9.48977 3.81445 9.48977V10.664C4.89375 10.664 5.77266 9.78509 5.77266 8.70579V5.96712H4.59844V8.7093Z" fill="#EEEEEE"/>
<path d="M11.2501 5.96712H12.4243V8.7093H11.2501V5.96712ZM9.49229 7.53157C9.49229 7.58378 9.47154 7.63386 9.43462 7.67078C9.3977 7.7077 9.34762 7.72845 9.29541 7.72845C9.2432 7.72845 9.19312 7.7077 9.1562 7.67078C9.11928 7.63386 9.09853 7.58378 9.09854 7.53157V5.96712H7.92432V7.53157C7.91796 7.57881 7.89468 7.62214 7.8588 7.65352C7.82292 7.6849 7.77687 7.7022 7.7292 7.7022C7.68153 7.7022 7.63548 7.6849 7.5996 7.65352C7.56372 7.62214 7.54044 7.57881 7.53408 7.53157V5.96712H6.35986V7.53157C6.35986 7.89521 6.50432 8.24395 6.76145 8.50108C7.01858 8.75821 7.36732 8.90266 7.73096 8.90266C8.0102 8.90267 8.28269 8.81675 8.51143 8.65657C8.74016 8.81675 9.01265 8.90267 9.29189 8.90266C9.35166 8.90266 9.41143 8.89915 9.46768 8.89212C9.42605 9.06225 9.32865 9.21354 9.19102 9.32186C9.05339 9.43018 8.88345 9.48929 8.7083 9.48977V10.664C9.78408 10.664 10.663 9.78509 10.663 8.70579V5.96712H9.49229V7.53157Z" fill="#EEEEEE"/>
<path d="M6.35986 9.48978H8.11768V10.664H6.35986V9.48978Z" fill="#EEEEEE"/>
</g>
</g>
</g>
<defs>
<clipPath id="clip0_1_4027">
<rect width="18" height="18" fill="white" transform="translate(0 0.880005)"/>
</clipPath>
<clipPath id="clip1_1_4027">
<rect width="18" height="18" fill="white" transform="translate(0 0.880005)"/>
</clipPath>
<clipPath id="clip2_1_4027">
<rect width="18" height="18" fill="white" transform="translate(0 0.880005)"/>
</clipPath>
</defs>
</svg>
