<svg width="62" height="51" viewBox="0 0 62 51" fill="none" xmlns="http://www.w3.org/2000/svg">
<mask id="mask0_1_3451" style="mask-type:luminance" maskUnits="userSpaceOnUse" x="0" y="0" width="62" height="51">
<path d="M61.1964 0.844849H0.0961914V50.4262H61.1964V0.844849Z" fill="white"/>
</mask>
<g mask="url(#mask0_1_3451)">
<path d="M59.4772 26.0444C59.2194 25.3172 58.9992 24.7137 58.787 24.1419C57.2534 20.0195 55.6992 15.8086 54.3619 12.1866L53.9197 10.9868C53.3511 9.44435 52.7815 7.90189 52.2108 6.35942C52.1383 6.05549 51.9973 5.77216 51.7985 5.53109C51.5997 5.29003 51.3484 5.09761 51.0639 4.96855C50.7533 4.92524 50.4368 4.95366 50.1389 5.05163C49.841 5.14961 49.5694 5.31453 49.3451 5.53376C48.9313 5.84644 48.5347 6.13532 48.0567 6.48039C47.9397 6.56765 47.8194 6.65557 47.6991 6.74481L47.4664 6.91206C46.2331 7.89529 44.8777 8.71476 43.434 9.35004L43.1186 9.5001L43.0063 9.16957C42.1866 6.7811 40.6529 4.70216 38.6126 3.21423C36.5724 1.72629 34.1242 0.901225 31.5995 0.850731C29.0748 0.800237 26.5956 1.52676 24.4975 2.93192C22.3994 4.33709 20.7837 6.35304 19.8692 8.70683L19.78 8.9382L19.5334 8.90383C19.0617 8.83508 18.5856 8.80106 18.1088 8.80203C15.7549 8.79573 13.4752 9.62541 11.6759 11.1432C9.87659 12.661 8.67464 14.7683 8.2842 17.0897C8.2234 17.4428 8.18213 17.799 8.16058 18.1567L8.15133 18.3365L8.08522 18.3695C8.07729 18.3741 8.06936 18.3774 8.06341 18.3808L8.02903 18.3986L7.99003 18.4171C5.53235 19.6556 3.2001 21.1287 1.02579 22.8158C0.0196558 23.5972 -0.0973515 23.9918 0.330353 25.1718C3.2108 33.1349 6.09323 41.0962 8.97765 49.0558C9.0474 49.3486 9.18454 49.6211 9.37814 49.8515C9.57175 50.082 9.81648 50.264 10.0929 50.3832C10.3791 50.4311 10.6726 50.4112 10.9499 50.3252C11.2271 50.2392 11.4803 50.0895 11.6893 49.8881C18.5445 44.5499 26.9246 41.5392 35.6097 41.2943C36.4373 41.2659 37.2683 41.213 38.084 41.1363L38.3326 41.1112L38.3874 41.2765L38.4106 41.3485C38.4529 41.4768 38.4978 41.6031 38.5468 41.73C39.435 44.0118 41.1683 45.8636 43.3864 46.9005C45.6046 47.9374 48.1371 48.0797 50.4574 47.2978C52.7778 46.5159 54.7076 44.8699 55.8459 42.7019C56.9841 40.534 57.2431 38.0108 56.5692 35.6568C56.5315 35.5286 56.4912 35.4023 56.4475 35.2787L56.3649 35.0394L56.5791 34.9072C56.9209 34.6976 57.2818 34.4696 57.652 34.2263C57.8424 34.1014 58.0361 33.9797 58.2317 33.8574L58.3507 33.7808C59.475 33.1966 60.4495 32.3612 61.1986 31.3395V30.5198C60.5375 29.0079 59.9756 27.4346 59.4798 26.0444M22.4295 9.45581C23.1862 7.63421 24.4822 6.0878 26.1435 5.0243C27.8047 3.96079 29.7516 3.43115 31.7227 3.5065C33.6938 3.58185 35.5946 4.25859 37.1698 5.44581C38.745 6.63304 39.9192 8.27389 40.5346 10.1479L40.6879 10.6226L40.4235 10.7336C36.6866 12.2972 32.7358 13.2898 28.7036 13.678C28.5959 13.6892 28.463 13.7031 28.3162 13.7044C28.0551 13.7216 27.798 13.7421 27.5428 13.7619L27.4866 13.7666C27.4337 13.7666 27.3802 13.7745 27.3286 13.7791L27.2414 13.7871C27.1508 13.793 27.0602 13.8009 26.971 13.8089L26.7727 13.8247L26.6728 13.6575C26.5182 13.3964 26.3463 13.1392 26.1638 12.8907C25.2256 11.6095 23.997 10.569 22.5789 9.85443L22.3198 9.72222L22.4295 9.45581ZM11.1803 16.4181C11.6689 14.9681 12.6009 13.7085 13.8446 12.8174C15.0884 11.9262 16.5808 11.4486 18.1108 11.4522C18.3537 11.4516 18.5965 11.4642 18.838 11.4899C19.3318 11.5357 19.8194 11.6341 20.2923 11.7834C21.456 12.1512 22.5102 12.8022 23.3603 13.678L23.7979 14.1295L23.1745 14.2062C22.8043 14.2518 22.4434 14.3 22.0937 14.3483C21.5596 14.4217 21.0129 14.5017 20.4721 14.5843C19.9208 14.6716 19.3787 14.7621 18.8605 14.8527C16.3722 15.2949 14.8227 15.6962 14.4069 15.8099L14.3838 15.8145C13.4623 16.108 12.5441 16.4346 11.6582 16.7817C11.6351 16.7909 11.6126 16.8002 11.5921 16.8081C11.5485 16.824 11.5029 16.8411 11.4599 16.8597L11.1803 16.9687L11.1334 16.9872L10.9681 17.0533L11.1803 16.4181ZM47.44 45.2085C46.1133 45.2077 44.8153 44.8225 43.7029 44.0996C42.5905 43.3767 41.7114 42.347 41.1718 41.135C41.1189 41.0213 41.0687 40.9023 41.0264 40.7866C40.7296 40.0086 40.5781 39.1827 40.5795 38.35C40.5795 38.1576 40.5855 37.9857 40.6 37.8112C40.6112 37.679 40.6251 37.5375 40.6456 37.4034C40.8217 36.1397 41.3467 34.9501 42.1616 33.9684C42.9765 32.9866 44.049 32.2516 45.2586 31.8457C46.4683 31.4399 47.7671 31.3794 49.0092 31.671C50.2513 31.9626 51.3875 32.5948 52.2901 33.4965C52.3886 33.5963 52.4825 33.6948 52.5731 33.7979C53.2414 34.5521 53.7363 35.4437 54.0228 36.4098C54.0572 36.5283 54.0884 36.6471 54.1167 36.7661C54.355 37.7737 54.3623 38.8222 54.138 39.833C53.9136 40.8438 53.4634 41.7907 52.8212 42.6029C52.1789 43.415 51.3611 44.0713 50.4292 44.5225C49.4973 44.9737 48.4754 45.2082 47.44 45.2085ZM57.065 31.0896C56.4416 31.5226 55.801 31.941 55.1624 32.3363L54.9284 32.4798L54.7552 32.2656C54.6924 32.1876 54.623 32.1109 54.5569 32.0342C54.3899 31.8452 54.216 31.6645 54.0353 31.4922C54.0353 31.4922 54.0353 31.4875 54.0294 31.4862C52.7293 30.2397 51.1022 29.3877 49.3372 29.029C47.5721 28.6703 45.7415 28.8197 44.058 29.4599C42.3745 30.1001 40.9072 31.2047 39.8264 32.6456C38.7457 34.0864 38.0959 35.8043 37.9525 37.5997C37.9445 37.7015 37.9386 37.8059 37.9353 37.9124L37.9227 38.186L37.651 38.2112C36.6138 38.3064 35.5284 38.3718 34.6564 38.4253H34.6313C32.7568 38.5055 30.8885 38.6953 29.0361 38.9939C23.1705 40.0481 17.5846 42.2984 12.626 45.6044C12.3603 45.8149 12.0383 45.9421 11.7005 45.97C11.5986 45.9695 11.4974 45.9532 11.4004 45.9217C11.2029 45.8364 11.0283 45.7058 10.8905 45.5406C10.7527 45.3754 10.6557 45.1801 10.6072 44.9705C8.61539 39.3845 6.42729 33.3253 3.72621 25.9115C3.56631 25.587 3.53594 25.2137 3.64129 24.8676C3.74664 24.5215 3.97979 24.2284 4.29339 24.048C5.99697 22.8457 7.79369 21.7811 9.66647 20.8643C10.1867 20.6098 10.699 20.3725 11.1869 20.1597C13.8811 18.9853 16.6998 18.1204 19.5889 17.5815C20.1515 17.4771 20.7127 17.3832 21.2667 17.3052C22.0117 17.1961 22.7759 17.1069 23.5335 17.0408C23.9413 17.0051 24.3539 16.9747 24.7644 16.9377L24.9157 16.9251C25.1141 16.9112 25.3018 16.8954 25.4922 16.8815L26.1374 16.8312C26.2795 16.82 26.4216 16.8094 26.5638 16.7969C29.3775 16.6478 32.1739 16.265 34.9242 15.6526C37.4182 15.0357 39.8552 14.2079 42.209 13.1782C42.7603 12.9363 43.307 12.6831 43.8352 12.424C45.4739 11.6229 47.0595 10.7176 48.5823 9.71362C48.6761 9.64752 48.7727 9.58869 48.8698 9.52919L49.445 9.16693L49.7794 9.30575C49.9568 9.38291 50.1124 9.50249 50.2327 9.65396C50.3529 9.80544 50.434 9.98416 50.4689 10.1744L50.4828 10.2213C50.4856 10.2326 50.4894 10.2437 50.4941 10.2544C51.5235 13.0286 52.5524 15.8075 53.5805 18.591L55.5921 24.0361C56.2433 25.7952 56.9142 27.6131 57.5898 29.3907C57.7332 29.6883 57.7583 30.0292 57.6602 30.3446C57.562 30.66 57.3479 30.9265 57.061 31.0902" fill="#421C67"/>
<path d="M34.883 23.6923C34.3398 23.0944 33.6781 22.6161 32.9399 22.288C32.2017 21.9598 31.4032 21.7891 30.5954 21.7865H30.5861C29.1585 21.7853 27.7797 22.3058 26.709 23.2501C25.847 24.0159 25.2321 25.0205 24.9422 26.1365C24.6523 27.2525 24.7006 28.4295 25.081 29.5179C25.4613 30.6064 26.1565 31.5573 27.0784 32.2499C28.0002 32.9425 29.1071 33.3455 30.2584 33.4078C31.4097 33.4701 32.5536 33.1889 33.5448 32.5998C34.536 32.0107 35.3297 31.1403 35.8253 30.0993C36.3208 29.0582 36.4958 27.8933 36.3281 26.7526C36.1603 25.6118 35.6573 24.5467 34.883 23.6923ZM32.5885 29.6326C32.3248 29.8987 32.0118 30.1109 31.667 30.2573C31.3246 30.4005 30.9572 30.4742 30.5861 30.4741H30.5597C29.805 30.4579 29.0858 30.1506 28.5525 29.6164C28.0192 29.0822 27.713 28.3625 27.698 27.6078C27.6967 26.8509 27.9949 26.1242 28.5274 25.5863C29.06 25.0485 29.7836 24.7431 30.5405 24.7368H30.5623C30.9354 24.7316 31.3058 24.8001 31.6524 24.9383C31.999 25.0764 32.3149 25.2816 32.5822 25.542C32.8494 25.8024 33.0626 26.1129 33.2097 26.4558C33.3568 26.7987 33.4348 27.1673 33.4393 27.5403C33.4432 27.9277 33.3703 28.3121 33.2247 28.6711C33.0791 29.0301 32.8637 29.3567 32.5911 29.6319" fill="#421C67"/>
<path d="M44.3116 23.1126C44.3121 23.4999 44.161 23.8719 43.8907 24.1493C43.6204 24.4266 43.2523 24.5872 42.8652 24.5967H42.8493C42.6584 24.5988 42.469 24.563 42.292 24.4914C42.115 24.4199 41.954 24.3139 41.8182 24.1797C41.6824 24.0455 41.5746 23.8858 41.5009 23.7096C41.4272 23.5335 41.3892 23.3445 41.3891 23.1536V23.141C41.3847 22.9495 41.4183 22.759 41.488 22.5806C41.5577 22.4022 41.6621 22.2394 41.7951 22.1015C41.9281 21.9637 42.0872 21.8536 42.263 21.7776C42.4389 21.7017 42.628 21.6613 42.8196 21.6589H42.8355C43.2217 21.6637 43.5911 21.8178 43.8663 22.0889C44.1415 22.36 44.301 22.7271 44.3116 23.1133" fill="#421C67"/>
<path d="M19.7601 32.0818C19.7582 32.2778 19.7174 32.4715 19.6401 32.6517C19.5628 32.8319 19.4506 32.995 19.31 33.1316C19.1742 33.2631 19.0138 33.3666 18.838 33.436C18.6621 33.5054 18.4743 33.5395 18.2853 33.5361C17.8968 33.5276 17.5273 33.3659 17.2575 33.0861C16.9877 32.8064 16.8394 32.4314 16.8449 32.0428C16.8466 31.8525 16.8859 31.6645 16.9604 31.4894C17.035 31.3144 17.1433 31.1558 17.2793 31.0227C17.4153 30.8896 17.5762 30.7847 17.7528 30.7139C17.9294 30.6431 18.1182 30.6079 18.3085 30.6103H18.327C18.5186 30.6095 18.7085 30.6473 18.8852 30.7214C19.0619 30.7956 19.2219 30.9046 19.3556 31.0419C19.4893 31.1793 19.594 31.3421 19.6633 31.5208C19.7327 31.6994 19.7661 31.8902 19.7601 32.0818Z" fill="#421C67"/>
<path d="M43.1199 9.4981L40.6879 10.6219L40.5345 10.1473C39.9191 8.2732 38.745 6.63236 37.1698 5.44513C35.5946 4.25791 33.6938 3.58117 31.7227 3.50581C29.7516 3.43046 27.8047 3.96011 26.1434 5.02361C24.4822 6.08711 23.1862 7.63353 22.4295 9.45513L22.3178 9.72484L22.5769 9.85705C23.995 10.5716 25.2236 11.6122 26.1618 12.8933C26.3443 13.1418 26.5162 13.3997 26.6708 13.6601L26.7707 13.8274L26.969 13.8115C27.0582 13.8036 27.1488 13.7956 27.2393 13.7897C26.2788 13.8803 23.8019 14.1315 23.8019 14.1315L23.3642 13.68C22.5142 12.8042 21.46 12.1532 20.2963 11.7854C19.8233 11.6361 19.3358 11.5377 18.8419 11.4918C18.6004 11.4662 18.3577 11.4536 18.1148 11.4542C16.5847 11.4506 15.0923 11.9282 13.8486 12.8193C12.6049 13.7105 11.6728 14.9701 11.1842 16.42L10.9701 17.056L11.1353 16.9899C10.0115 17.446 8.6233 18.1137 8.15527 18.3378L8.16453 18.158C8.18608 17.8003 8.22734 17.4441 8.28815 17.091C8.67712 14.7688 9.87818 12.6602 11.6772 11.1411C13.4762 9.62198 15.7562 8.79115 18.1108 8.79672C18.5875 8.79575 19.0637 8.82977 19.5354 8.89852L19.782 8.93289L19.8712 8.70152C20.7857 6.34773 22.4013 4.33178 24.4994 2.92661C26.5975 1.52145 29.0768 0.794927 31.6015 0.845421C34.1261 0.895915 36.5743 1.72098 38.6146 3.20892C40.6548 4.69685 42.1886 6.77579 43.0082 9.16426L43.1199 9.4981Z" fill="#9057CD"/>
</g>
</svg>
