<svg width="50" height="50" viewBox="0 0 50 50" fill="none" xmlns="http://www.w3.org/2000/svg">
<mask id="mask0_1_3494" style="mask-type:luminance" maskUnits="userSpaceOnUse" x="0" y="0" width="50" height="50">
<path d="M49.2028 0.665894H0.0458984V49.7812H49.2028V0.665894Z" fill="white"/>
</mask>
<g mask="url(#mask0_1_3494)">
<path d="M49.1982 25.3935C49.2142 25.1593 49.1828 24.9244 49.1059 24.7027C49.029 24.481 48.9082 24.277 48.7506 24.1031C48.5724 23.9474 48.3652 23.8286 48.141 23.7532C47.9167 23.6779 47.6797 23.6476 47.4437 23.6641H41.4836C39.0919 23.6641 36.6989 23.6641 34.3045 23.6641C33.7537 23.6595 33.2043 23.7187 32.6671 23.8406C30.909 24.2276 29.3561 25.2511 28.3073 26.7141C27.2584 28.1772 26.7877 29.9764 26.9857 31.7657C27.1837 33.5549 28.0364 35.2078 29.3797 36.4061C30.723 37.6045 32.4621 38.2637 34.2622 38.257C36.7623 38.2669 39.162 38.2649 41.397 38.251C41.5197 38.2387 41.6436 38.251 41.7614 38.2872C41.8792 38.3235 41.9886 38.3828 42.0832 38.4619C42.1606 38.5525 42.2191 38.6577 42.2553 38.7712C42.2915 38.8847 42.3047 39.0043 42.2941 39.123C42.2802 40.0941 42.2822 41.0771 42.2842 42.0316V42.4851C42.2842 43.0992 42.2842 43.7272 42.2802 44.3433C42.2895 44.6543 42.2352 44.9639 42.1208 45.2532C42.0063 45.5425 41.834 45.8055 41.6145 46.0259C41.395 46.2464 41.1328 46.4197 40.844 46.5354C40.5552 46.6511 40.2458 46.7066 39.9348 46.6987H35.4581C27.2834 46.7046 18.02 46.7106 9.15922 46.6888C7.56589 46.6824 6.03951 46.0472 4.91191 44.9215C3.78432 43.7958 3.14669 42.2704 3.13765 40.6771C3.1198 34.5293 3.11385 28.1388 3.1198 21.3425C3.12376 18.2025 3.12905 14.9688 3.13566 11.6415C3.15732 10.2191 3.67688 8.84936 4.60398 7.77045C5.53108 6.69153 6.80705 5.97174 8.20994 5.73626C9.25704 5.59629 10.3149 5.55469 11.3698 5.61198H11.4822C11.978 5.62388 12.4916 5.63578 12.9934 5.62189C13.2041 5.63193 13.4147 5.59947 13.6126 5.52644C13.8105 5.45341 13.9918 5.3413 14.1455 5.19678C14.2992 5.05227 14.4222 4.8783 14.5073 4.68525C14.5924 4.49219 14.6378 4.28399 14.6407 4.07303C14.6376 3.86253 14.5918 3.65485 14.5061 3.46257C14.4204 3.27029 14.2965 3.09743 14.142 2.95446C13.9874 2.81148 13.8055 2.70138 13.6071 2.63083C13.4088 2.56028 13.1982 2.53074 12.9881 2.54401C11.816 2.53608 10.6506 2.54004 9.41835 2.54401H9.39257C7.74914 2.5318 6.1319 2.95592 4.70596 3.77306C3.28002 4.59021 2.09646 5.77111 1.27611 7.19521C0.46857 8.61772 0.0467643 10.2265 0.0524891 11.8623C0.048082 17.6487 0.0458785 23.4359 0.0458785 29.2236V40.4781C0.0395151 41.0919 0.0980129 41.7045 0.220398 42.306C0.627935 44.4334 1.77285 46.3489 3.45362 47.7152C5.1344 49.0816 7.24329 49.8113 9.4091 49.7759C12.9021 49.7819 16.45 49.7819 19.8849 49.7799H24.7694C26.2321 49.7799 27.6942 49.7799 29.1556 49.7799H31.2802C34.1227 49.7799 37.0631 49.7799 39.9401 49.7719C41.225 49.7938 42.4739 49.3473 43.4539 48.5159C44.4338 47.6845 45.0778 46.5249 45.2655 45.2536C45.3879 44.2629 45.4242 43.2633 45.3739 42.2663V42.2101C45.3601 41.6462 45.3462 41.0083 45.366 40.3882C45.3669 40.2335 45.3567 40.0788 45.3356 39.9255L45.3297 39.8673C45.2579 39.6271 45.246 39.373 45.295 39.1271C45.344 38.8812 45.4523 38.651 45.6106 38.4566C45.8143 38.3296 46.0413 38.2444 46.2782 38.2058C46.5151 38.1672 46.7574 38.1761 46.9909 38.2319C47.1522 38.2495 47.3145 38.2581 47.4768 38.2576C47.7075 38.2805 47.9405 38.2521 48.159 38.1745C48.3776 38.0969 48.5763 37.9719 48.7409 37.8086C48.9055 37.6453 49.0321 37.4476 49.1115 37.2297C49.1909 37.0118 49.2211 36.7791 49.2001 36.5482C49.2061 33.0208 49.2061 29.3711 49.2001 25.3921M46.1361 34.2503V34.2946C46.1457 34.4165 46.131 34.539 46.0927 34.6551C46.0545 34.7712 45.9935 34.8786 45.9134 34.9709C45.8199 35.053 45.7107 35.1151 45.5923 35.1534C45.474 35.1917 45.349 35.2054 45.2252 35.1936H45.1849C43.9249 35.1758 42.6405 35.1778 41.399 35.1798H41.1081C40.6106 35.1798 40.113 35.1798 39.6155 35.1798H37.3018C36.3349 35.1798 35.3677 35.1784 34.4004 35.1758C33.8077 35.1842 33.2193 35.0743 32.6695 34.8528C32.1197 34.6312 31.6195 34.3024 31.1982 33.8854C30.8138 33.4955 30.5106 33.0331 30.3063 32.525C30.1021 32.017 30.0008 31.4734 30.0083 30.9259C30.0119 30.3595 30.1295 29.7997 30.3541 29.2799C30.5787 28.76 30.9057 28.2906 31.3156 27.8998C31.7254 27.509 32.2098 27.2047 32.7398 27.0051C33.2698 26.8055 33.8345 26.7147 34.4004 26.7381C35.7608 26.7341 37.1206 26.7341 38.4798 26.7381C40.6791 26.7381 42.9525 26.7381 45.1875 26.7281C45.3176 26.7159 45.4487 26.7294 45.5735 26.768C45.6983 26.8065 45.8143 26.8694 45.9147 26.9529C45.998 27.0508 46.0606 27.1647 46.0985 27.2875C46.1365 27.4104 46.1491 27.5396 46.1355 27.6675C46.1097 29.8186 46.1097 32.0305 46.1355 34.249" fill="#421C67"/>
<path d="M45.3437 15.9033V15.7631C45.361 15.0408 45.2321 14.3225 44.9647 13.6513C44.6973 12.9801 44.2969 12.3699 43.7877 11.8574C43.2784 11.3448 42.6708 10.9406 42.0013 10.6689C41.3318 10.3972 40.6143 10.2637 39.8919 10.2764C39.6519 10.2948 39.4128 10.2301 39.2148 10.0931C39.0168 9.95612 38.8719 9.7552 38.8045 9.52407C38.0773 7.65393 37.3198 5.75604 36.5893 3.9183L35.8291 2.01445C35.4648 1.08897 35.0285 0.665894 34.3483 0.665894C33.9872 0.68094 33.6318 0.761114 33.2992 0.902552L12.9386 8.6713C12.5856 8.80351 12.2326 8.93573 11.881 9.07256L11.5438 9.20081C10.6448 9.53993 9.71599 9.89294 8.81497 10.2519C8.61728 10.3045 8.43197 10.3958 8.26972 10.5204C8.10748 10.645 7.97152 10.8005 7.86969 10.9779C7.76785 11.1554 7.70216 11.3512 7.6764 11.5541C7.65064 11.7571 7.66532 11.9631 7.71959 12.1604C7.83603 12.5126 8.0709 12.8136 8.38426 13.0123C8.69761 13.2109 9.07009 13.2948 9.43834 13.2498C11.8503 13.2599 14.2627 13.2679 16.6756 13.2736L32.7234 13.3179C35.0689 13.324 37.4145 13.3313 39.7604 13.3397H39.7802C40.1116 13.3128 40.445 13.3579 40.7573 13.4719C41.0696 13.586 41.3536 13.7662 41.5897 14.0003C41.8258 14.2344 42.0085 14.5169 42.1252 14.8282C42.2419 15.1396 42.2899 15.4725 42.2658 15.8041C42.2658 16.0447 42.2658 16.2854 42.2658 16.5266C42.2618 16.8836 42.2618 17.2227 42.2658 17.5381C42.2594 17.9455 42.4137 18.339 42.6953 18.6334C42.9769 18.9279 43.3631 19.0996 43.7704 19.1114H43.8028C44.2122 19.1051 44.6027 18.9378 44.8896 18.6457C45.1766 18.3535 45.3368 17.9601 45.3358 17.5506C45.3496 16.9828 45.3477 16.403 45.3437 15.9053M17.7115 10.1626L19.5995 9.42425L28.5356 6.01517C29.4364 5.67186 30.3372 5.32943 31.238 4.98789L32.6223 4.45904C32.6415 4.45299 32.6602 4.4457 32.6785 4.43723C32.7676 4.38761 32.866 4.35715 32.9676 4.34782C33.0691 4.33848 33.1715 4.35047 33.2682 4.38302C33.3551 4.42266 33.4326 4.48035 33.4955 4.55228C33.5585 4.6242 33.6053 4.7087 33.6331 4.80015C33.9702 5.67274 34.3093 6.52948 34.6584 7.41067L35.7656 10.2096L17.7115 10.1626Z" fill="#9057CD"/>
</g>
</svg>
