<svg width="56" height="56" viewBox="0 0 56 56" fill="none" xmlns="http://www.w3.org/2000/svg">
<mask id="mask0_1_3390" style="mask-type:luminance" maskUnits="userSpaceOnUse" x="0" y="0" width="56" height="57">
<path d="M55.8649 0.200623H0.0795898V56.0058H55.8649V0.200623Z" fill="white"/>
</mask>
<g mask="url(#mask0_1_3390)">
<path d="M55.7161 26.7546C55.7083 26.6535 55.6946 26.5528 55.6752 26.4532C55.4261 25.1896 54.8418 24.0162 53.9835 23.056C53.5453 22.591 53.2269 22.0263 53.0558 21.4107C52.8846 20.7951 52.8659 20.1471 53.0012 19.5227C53.3863 17.6714 53.072 15.743 52.119 14.1098C51.1659 12.4766 49.6416 11.2544 47.8403 10.679C47.2591 10.488 46.7318 10.1613 46.302 9.72592C45.8722 9.29059 45.5522 8.75916 45.3686 8.17561C44.77 6.40816 43.553 4.91648 41.9417 3.97521C40.3304 3.03394 38.4333 2.70647 36.5997 3.05308C35.9676 3.19468 35.3105 3.1809 34.6849 3.01292C34.0593 2.84494 33.4837 2.52777 33.0075 2.08859C31.919 1.12646 30.573 0.503534 29.135 0.296466C29.0586 0.28174 28.9837 0.2596 28.9116 0.23036C28.8832 0.221766 28.8547 0.210528 28.8263 0.199951H27.0996C27.0712 0.210528 27.0428 0.219783 27.013 0.23036C26.941 0.259833 26.8661 0.28198 26.7896 0.296466C25.369 0.496841 24.0382 1.10882 22.9614 2.05686C22.476 2.5137 21.8851 2.84332 21.2413 3.01633C20.5976 3.18935 19.9211 3.20038 19.272 3.04845C17.4452 2.70704 15.5566 3.03809 13.9548 3.98047C12.353 4.92286 11.1462 6.41294 10.5573 8.17561C10.3743 8.75947 10.0545 9.2912 9.6246 9.72661C9.1947 10.162 8.66709 10.4885 8.08562 10.679C6.26555 11.2598 4.72823 12.4997 3.77536 14.1556C2.8225 15.8115 2.52288 17.7637 2.93532 19.6291C3.06623 20.2191 3.0503 20.8322 2.88894 21.4146C2.72757 21.997 2.42571 22.5309 2.00984 22.9694C1.58558 23.4376 1.22322 23.9584 0.931651 24.5189C0.223829 25.9094 -0.0529371 27.4794 0.136785 29.028C0.326508 30.5766 0.974085 32.0334 1.99662 33.2118C2.41275 33.6606 2.71484 34.2028 2.87741 34.7928C3.03998 35.3828 3.05825 36.0032 2.93069 36.6018C2.52925 38.4679 2.83728 40.4168 3.79473 42.0682C4.75219 43.7196 6.2904 44.9552 8.10942 45.534C8.68215 45.7229 9.20184 46.0451 9.62569 46.4741C10.0495 46.9032 10.3654 47.4267 10.5474 48.0017C11.1339 49.7868 12.353 51.2958 13.975 52.2443C15.5971 53.1929 17.51 53.5155 19.3533 53.1513C19.6474 53.0959 19.9459 53.0673 20.2451 53.0661C21.2263 53.0671 22.1719 53.4339 22.8973 54.0947C24.2931 55.323 26.0877 56.0023 27.9471 56.0062C29.8064 56.0101 31.6039 55.3383 33.0048 54.1158C33.4833 53.68 34.0591 53.365 34.6841 53.1973C35.3092 53.0295 35.9653 53.0137 36.5977 53.1513C38.4323 53.5139 40.3362 53.1935 41.9512 52.2505C43.5661 51.3074 44.7808 49.8068 45.3666 48.0308C45.5505 47.4471 45.8705 46.9155 46.3003 46.4799C46.73 46.0443 47.2572 45.7171 47.8383 45.5254C49.6401 44.9512 51.1651 43.7296 52.1186 42.0966C53.0722 40.4635 53.3866 38.5351 53.0012 36.6837C52.866 36.0594 52.8846 35.4116 53.0553 34.7961C53.2261 34.1805 53.544 33.6158 53.9815 33.1504C54.8284 32.2044 55.409 31.0506 55.6639 29.8067C55.6855 29.6991 55.701 29.5903 55.7102 29.4808C55.7199 29.263 55.7722 29.0492 55.8642 28.8515V27.3555C55.7701 27.169 55.7199 26.9636 55.7161 26.7546ZM51.3981 31.3397C50.708 32.1429 50.214 33.0954 49.9552 34.1222C49.6964 35.149 49.6798 36.2219 49.9068 37.2562C50.1465 38.3507 49.9712 39.4952 49.415 40.4678C48.8587 41.4404 47.9612 42.1718 46.8963 42.5202C45.8283 42.8652 44.8584 43.4608 44.0675 44.2572C43.2766 45.0536 42.6878 46.0276 42.3502 47.098C41.9925 48.1393 41.2675 49.0144 40.3109 49.5594C39.3543 50.1045 38.2318 50.2821 37.1536 50.0589C36.0848 49.8158 34.9732 49.833 33.9124 50.1091C32.8517 50.3852 31.8727 50.9121 31.058 51.6454C30.2175 52.4293 29.111 52.8652 27.9616 52.8652C26.8123 52.8652 25.7058 52.4293 24.8652 51.6454C24.0506 50.9121 23.0716 50.3852 22.0108 50.1091C20.9501 49.833 19.8385 49.8158 18.7696 50.0589C17.6912 50.2824 16.5683 50.1051 15.6113 49.56C14.6543 49.0149 13.9289 48.1396 13.5711 47.098C13.2341 46.0271 12.6455 45.0525 11.8546 44.2557C11.0637 43.4589 10.0934 42.8631 9.02498 42.5182C7.96056 42.1693 7.06355 41.4377 6.50773 40.4652C5.95191 39.4926 5.77687 38.3484 6.01651 37.2542C6.25076 36.1928 6.22855 35.0908 5.95171 34.0396C5.67487 32.9885 5.15139 32.0185 4.42468 31.2102C3.63418 30.3735 3.19244 29.2669 3.1895 28.1159C3.18655 26.9649 3.62261 25.8561 4.40881 25.0154C5.14308 24.2014 5.67177 23.2235 5.95066 22.1633C6.22956 21.1032 6.25055 19.9917 6.01188 18.9218C5.78026 17.8447 5.95179 16.72 6.49396 15.7609C7.03613 14.8018 7.91128 14.0749 8.95359 13.7179C10.0479 13.367 11.0416 12.7577 11.8506 11.9414C12.6595 11.1251 13.2599 10.1259 13.6008 9.02838C13.9659 8.00741 14.6877 7.1528 15.6332 6.62204C16.5787 6.09129 17.6841 5.92017 18.7458 6.14022C19.8138 6.38768 20.9255 6.37464 21.9874 6.10219C23.0492 5.82975 24.0299 5.30589 24.8467 4.57483C25.6885 3.77649 26.8045 3.33146 27.9646 3.33146C29.1248 3.33146 30.2407 3.77649 31.0825 4.57483C31.8918 5.30038 32.8629 5.82191 33.9148 6.09594C34.9666 6.36997 36.0687 6.38855 37.1292 6.15013C38.2058 5.92134 39.3288 6.09267 40.2882 6.63205C41.2476 7.17143 41.9776 8.04191 42.3416 9.0806C42.6847 10.1687 43.2849 11.1581 44.0913 11.9652C44.8976 12.7722 45.8865 13.3732 46.9743 13.7173C47.8826 14.0276 48.667 14.6216 49.2119 15.4117C49.7568 16.2018 50.0333 17.1461 50.0006 18.1054C50.0091 18.3999 49.9793 18.6943 49.9121 18.9813C49.8929 19.0857 49.8731 19.1921 49.8552 19.2986C49.6809 20.2783 49.7274 21.2845 49.9915 22.2439C50.2556 23.2033 50.7305 24.0917 51.3816 24.8442C53.1704 26.9807 53.1744 29.227 51.3975 31.3384" fill="#9057CD"/>
<path d="M26.0114 22.553C26.0122 21.7843 25.8268 21.0269 25.471 20.3455C25.1153 19.6641 24.5999 19.0789 23.9687 18.6402C23.2422 18.0697 22.3678 17.7186 21.4485 17.6282C20.5292 17.5378 19.6032 17.7118 18.7794 18.1298C17.9286 18.4925 17.2023 19.0958 16.6898 19.8656C16.1773 20.6354 15.9009 21.5383 15.8946 22.4631C15.8483 23.7488 15.8608 25.059 15.8714 26.325C15.8747 26.8921 15.88 27.4613 15.88 28.0285V28.0946H15.8661V29.6018C15.8661 30.8235 15.8661 32.0462 15.8661 33.27C15.8221 34.1187 15.9935 34.9647 16.3643 35.7293C16.7351 36.4939 17.2933 37.1523 17.987 37.6432C18.6806 38.1341 19.4872 38.4416 20.3316 38.537C21.176 38.6324 22.0308 38.5127 22.8165 38.189C24.8592 37.4459 25.9618 35.833 26.0081 33.5226C26.0841 29.6997 26.0504 25.8543 26.0114 22.549M22.88 33.4532C22.8797 33.8039 22.7881 34.1485 22.6143 34.4531C22.4404 34.7577 22.1902 35.0118 21.8884 35.1904C21.6072 35.3496 21.2893 35.4328 20.9662 35.4317C20.6103 35.4298 20.2609 35.3358 19.9521 35.1587C19.6387 34.9812 19.3829 34.7174 19.2153 34.3985C19.0477 34.0797 18.9753 33.7194 19.0068 33.3606C19.0068 32.1072 19.0068 30.8526 19.0068 29.5965V28.0702C19.0068 27.5224 19.0057 26.9739 19.0035 26.4248C19.0035 25.2296 18.9982 23.9941 19.0121 22.7797C19.002 22.4973 19.0517 22.2159 19.1577 21.9539C19.2638 21.6919 19.4239 21.4552 19.6276 21.2593C19.8359 21.0798 20.0798 20.9464 20.3433 20.8678C20.6068 20.7892 20.884 20.7672 21.1566 20.8031C21.4067 20.8221 21.6505 20.8909 21.8735 21.0055C22.0966 21.1202 22.2944 21.2784 22.4554 21.4707C22.6163 21.6631 22.7371 21.8858 22.8106 22.1256C22.8841 22.3654 22.9088 22.6175 22.8833 22.867C22.8905 24.548 22.8886 26.2284 22.8866 27.9095V29.9026C22.8866 30.2609 22.8877 30.619 22.8899 30.9768C22.8952 31.7873 22.9005 32.6255 22.8793 33.4498" fill="#421C67"/>
<path d="M39.0218 20.0475C38.3303 21.7921 37.621 23.5617 36.9335 25.2745L35.9869 27.6345L35.1275 29.7869C34.1381 32.2548 33.1512 34.7246 32.1667 37.196C32.0848 37.5225 31.905 37.816 31.6514 38.0373C31.3978 38.2585 31.0826 38.3968 30.748 38.4335C30.4849 38.4652 30.2181 38.4276 29.974 38.3244C29.7299 38.2212 29.517 38.056 29.3565 37.8452C29.189 37.6113 29.0843 37.3384 29.0524 37.0526C29.0205 36.7667 29.0623 36.4774 29.174 36.2124C29.6368 35.0297 30.1174 33.8326 30.5854 32.6737C30.789 32.1667 30.9913 31.6617 31.1956 31.1533L32.4516 28.0153C33.6661 24.9797 34.8812 21.9454 36.0966 18.9125C36.1893 18.5805 36.389 18.2883 36.6648 18.0815C36.9406 17.8747 37.277 17.7648 37.6217 17.7689C37.8716 17.7629 38.1191 17.8191 38.3419 17.9324C38.5647 18.0457 38.7558 18.2126 38.8982 18.418C39.0514 18.6584 39.1429 18.9329 39.1646 19.2172C39.1863 19.5015 39.1375 19.7867 39.0225 20.0475" fill="#421C67"/>
<path d="M32.1632 20.5315C32.1632 20.7298 32.1665 20.9281 32.1579 21.1264C32.1445 21.5316 31.9765 21.9164 31.6883 22.2016C31.4002 22.4868 31.0137 22.6508 30.6084 22.6601H30.5906C30.1962 22.6563 29.8176 22.5049 29.5294 22.2356C29.2412 21.9664 29.0643 21.5989 29.0338 21.2057C28.9896 20.5381 28.9907 19.8683 29.0371 19.2008C29.0571 18.8048 29.233 18.4329 29.5262 18.1661C29.8195 17.8993 30.2064 17.7594 30.6025 17.7768C30.6223 17.7768 30.6415 17.7768 30.6593 17.7768C31.0559 17.7813 31.4349 17.9411 31.715 18.2219C31.995 18.5028 32.1538 18.8822 32.1573 19.2788C32.1659 19.4949 32.1645 19.7164 32.1626 19.9312C32.1626 20.0396 32.1593 20.1474 32.1593 20.2558C32.1593 20.3464 32.1592 20.4383 32.1626 20.5288" fill="#421C67"/>
<path d="M39.1602 35.9446V36.0107C39.1602 36.1244 39.1602 36.2375 39.1655 36.3532C39.1761 36.5995 39.1726 36.8463 39.1549 37.0922C39.1214 37.4508 38.9573 37.7846 38.6938 38.0301C38.4303 38.2755 38.0857 38.4156 37.7257 38.4236C37.3579 38.4732 36.9851 38.3794 36.6847 38.1615C36.3843 37.9437 36.1792 37.6185 36.112 37.2535C35.9677 36.4375 35.9653 35.6027 36.1048 34.7858C36.1729 34.4386 36.3588 34.1256 36.6312 33.8997C36.9036 33.6738 37.2456 33.549 37.5994 33.5463C37.6298 33.5463 37.6596 33.5463 37.69 33.5496C38.068 33.5681 38.4263 33.7238 38.6978 33.9875C38.9693 34.2512 39.1353 34.6048 39.1648 34.9821C39.1827 35.2142 39.1774 35.4535 39.1734 35.6862C39.1734 35.7714 39.1701 35.858 39.1681 35.9433L39.1602 35.9446Z" fill="#421C67"/>
</g>
</svg>
