<svg width="57" height="58" viewBox="0 0 57 58" fill="none" xmlns="http://www.w3.org/2000/svg">
<path d="M56.84 28.1903H56.7917L56.7812 28.1156C56.5747 26.976 56.0962 25.9031 55.3863 24.9881L55.3705 24.967C55.2511 24.7962 55.1229 24.6318 54.9864 24.4745C54.7306 24.1882 54.478 23.9007 54.2255 23.6151L54.1772 23.5602C53.5592 22.8536 52.9179 22.1271 52.2569 21.429C51.1584 20.2624 50.5414 18.7238 50.5295 17.1215C50.5137 16.7787 50.4993 16.4345 50.4866 16.089C50.4628 14.8594 50.3662 13.6323 50.197 12.4141C50.0625 11.0771 49.4712 9.8274 48.5228 8.87543C47.5745 7.92346 46.327 7.32745 44.9905 7.18781C43.6601 6.98247 42.3154 6.88432 40.9693 6.8943H40.771C39.709 6.9009 38.6577 6.68225 37.6864 6.25278C36.7151 5.82331 35.8459 5.19277 35.1361 4.40277C34.2207 3.43385 33.2082 2.56152 32.1144 1.79953C31.061 1.01554 29.7913 0.575553 28.4786 0.539551C27.1884 0.573028 25.9387 0.996901 24.8944 1.75524C24.5765 1.96137 24.2731 2.18885 23.9861 2.43613C23.7997 2.59941 23.6146 2.76335 23.4262 2.92663L23.3872 2.96233C22.6441 3.61281 21.8766 4.28444 21.1515 4.98649C19.9201 6.17686 18.2777 6.84749 16.565 6.85926L15.9271 6.8824C14.6001 6.90042 13.2754 7.00065 11.9608 7.18252C9.08716 7.63931 7.39948 9.23841 6.79858 12.0691C6.52202 13.62 6.39583 15.194 6.42178 16.7692C6.42004 17.7476 6.21938 18.7154 5.83197 19.6139C5.44457 20.5123 4.87852 21.3226 4.16823 21.9955C3.13242 22.9992 2.1876 24.0926 1.34485 25.2631C0.725559 26.106 0.312373 27.0822 0.138424 28.1136L0.127847 28.1903H0.0795898V29.0021L0.0848783 29.7127H0.131152L0.143712 29.7894C0.35031 30.9276 0.827061 31.9997 1.53392 32.9155L1.56234 32.9512C1.67076 33.1006 1.79503 33.2712 1.93584 33.4292C2.18969 33.7154 2.44221 34.0016 2.69473 34.2885L2.7886 34.395C3.39479 35.0811 4.02015 35.7918 4.66535 36.4707C5.76358 37.6372 6.37994 39.176 6.39071 40.7781C6.40856 41.1225 6.42244 41.4656 6.435 41.8127C6.45764 43.0417 6.55433 44.2682 6.72454 45.4855C6.85821 46.8236 7.44956 48.0745 8.39874 49.0271C9.34792 49.9796 10.5968 50.5754 11.9343 50.7138C13.2642 50.9197 14.6085 51.0179 15.9542 51.0073H16.1525C17.2145 51.0008 18.2658 51.2197 19.2369 51.6496C20.208 52.0794 21.0769 52.7104 21.7861 53.5008C22.7028 54.4702 23.717 55.3425 24.8124 56.1041C25.865 56.8902 27.135 57.3315 28.4482 57.3674C29.7377 57.3324 30.9865 56.9082 32.0305 56.1504C32.348 55.9427 32.6519 55.7148 32.9401 55.4682C33.1252 55.3049 33.3136 55.1409 33.5 54.9777L33.5496 54.9334C34.2873 54.2835 35.0495 53.6179 35.7767 52.9178C37.0071 51.7279 38.6482 51.057 40.3598 51.0444L41.0295 51.0212C42.3452 51.0025 43.6586 50.9028 44.9621 50.7224C47.837 50.2637 49.5234 48.6646 50.1223 45.8306C50.402 44.2776 50.5288 42.7009 50.5011 41.1232C50.5031 40.1456 50.7037 39.1786 51.0908 38.2809C51.4778 37.3832 52.0432 36.5734 52.7527 35.9008C53.7907 34.8994 54.737 33.8069 55.58 32.6365C56.2005 31.7931 56.6138 30.8155 56.7864 29.7828L56.797 29.7061H56.8433L56.84 28.1903ZM53.1625 31.0745C52.431 32.089 51.6056 33.0325 50.6974 33.8926C49.6847 34.8701 48.8863 36.0475 48.3529 37.3501C47.8195 38.6527 47.5628 40.0519 47.5991 41.459C47.6029 42.6247 47.5252 43.7893 47.3664 44.9441C47.1019 46.7951 46.2769 47.6254 44.4114 47.899C43.3773 48.0312 42.3369 48.1088 41.2946 48.1317C40.7862 48.1529 40.2871 48.1727 39.7966 48.2045C37.6753 48.3007 35.6549 49.1377 34.087 50.5697C33.7763 50.852 33.465 51.1422 33.1616 51.4225L33.0743 51.5045C32.3169 52.2457 31.5139 52.939 30.67 53.5802C30.0447 54.1105 29.2651 54.4252 28.4469 54.4779C27.6257 54.4233 26.8438 54.1063 26.2165 53.5736C25.285 52.8862 24.4151 52.1191 23.6165 51.281C22.6289 50.2459 21.435 49.4295 20.112 48.8847C18.7891 48.3398 17.3666 48.0786 15.9364 48.1179H15.6806C14.6098 48.1172 13.5404 48.0412 12.4804 47.8905C10.6711 47.6313 9.82358 46.7832 9.55519 44.962C9.41623 43.8902 9.33502 42.8118 9.31192 41.7314L9.30663 41.6071C9.29077 41.1966 9.2749 40.7735 9.24978 40.3511C9.1505 38.1647 8.26802 36.087 6.76354 34.4974L6.69744 34.4313C5.97953 33.6585 5.1618 32.7807 4.4082 31.8955C3.47875 30.8008 3.03452 29.9672 2.96907 29.1964V28.9188C3.01101 28.1561 3.28995 27.4256 3.76697 26.8292C4.49746 25.8149 5.3212 24.8712 6.22743 24.0104C7.23928 23.033 8.03696 21.856 8.56988 20.5541C9.1028 19.2521 9.35931 17.8536 9.32316 16.4472C9.31996 15.2816 9.39771 14.1171 9.55585 12.9621C9.82028 11.1112 10.6473 10.2809 12.5128 10.0072C13.5275 9.87801 14.5482 9.801 15.5708 9.77651H15.6297C16.136 9.75536 16.6338 9.73552 17.1276 9.70512C19.2482 9.60868 21.2679 8.7717 22.8352 7.33985C23.0996 7.10319 23.3561 6.86191 23.6099 6.62393L23.8235 6.42561C24.588 5.67663 25.3987 4.9763 26.2509 4.32873C26.8766 3.80037 27.6549 3.48583 28.472 3.43102C29.2939 3.4859 30.0763 3.80365 30.7037 4.33733C31.6351 5.02339 32.5044 5.78985 33.3017 6.62789C34.2896 7.66343 35.4838 8.48019 36.807 9.02539C38.1303 9.57059 39.5532 9.83211 40.9839 9.79304H41.2417C42.313 9.79435 43.383 9.87034 44.4438 10.0204C46.2512 10.2796 47.0986 11.129 47.367 12.9489C47.5069 14.0199 47.5881 15.0977 47.6103 16.1775L47.6136 16.2502C47.6295 16.6786 47.6473 17.1209 47.6738 17.5565C47.772 19.743 48.653 21.8212 50.156 23.4121L50.1772 23.4333C50.911 24.2186 51.7446 25.1071 52.512 26.0114C53.4435 27.1061 53.8857 27.9397 53.9512 28.7105V28.9875C53.9105 29.7496 53.6332 30.48 53.1579 31.0771" fill="#9057CD"/>
<path d="M39.5046 29.2261C39.2815 29.1255 39.0399 29.0728 38.7952 29.0714C38.5099 29.0792 38.2306 29.1553 37.9808 29.2933C37.731 29.4314 37.5179 29.6273 37.3594 29.8647C37.34 29.8894 37.3204 29.916 37.3006 29.9447L37.251 30.0108C37.2299 30.0445 37.2028 30.0769 37.1849 30.1047C35.6334 31.9827 33.7976 32.932 31.7239 32.932C31.1529 32.929 30.5839 32.8641 30.027 32.7383C28.6743 32.5078 27.426 31.8647 26.4532 30.8969C25.4804 29.9292 24.8306 28.6843 24.5931 27.3329C23.9552 24.4242 24.8919 21.9558 27.3814 19.9991L27.4012 19.9845C27.7661 19.7634 28.0416 19.421 28.1794 19.0172C28.3172 18.6134 28.3085 18.174 28.1549 17.7759C28.0288 17.4552 27.8065 17.1813 27.5185 16.9919C27.2305 16.8025 26.891 16.7069 26.5465 16.7182C26.3777 16.7189 26.2093 16.7351 26.0434 16.7665C22.9266 17.2962 20.1216 18.975 18.182 21.4716C16.2424 23.9681 15.3091 27.1011 15.5663 30.2521C15.7291 32.2639 16.3833 34.2049 17.4715 35.9048C18.6062 37.6762 20.1635 39.1377 22.0034 40.1577C23.8433 41.1776 25.9079 41.7241 28.0114 41.7479H28.1344C30.2328 41.7446 32.2967 41.2129 34.1354 40.2017C35.9503 39.205 37.4924 37.7775 38.626 36.0449C39.2765 35.0566 39.7799 33.9791 40.1207 32.8461C40.2912 32.2881 40.4049 31.7143 40.4975 31.2536C40.6033 30.8523 40.5614 30.4264 40.3793 30.0535C40.1973 29.6806 39.8873 29.3856 39.5059 29.2222M37.3026 33.4833C37.1358 34.2308 36.788 34.9259 36.2898 35.5075C35.3097 36.6722 34.0928 37.6148 32.7201 38.2727C31.3842 38.9646 29.9137 39.3575 28.4107 39.4243H28.2487C26.0148 39.4362 23.8349 38.738 22.0235 37.4305C21.8689 37.3168 21.7128 37.1978 21.5608 37.0749C20.9548 36.5792 20.4074 36.0158 19.9293 35.3958C19.0163 34.2093 18.3823 32.8324 18.0744 31.3673C17.5839 29.0632 17.8984 26.6606 18.9652 24.5602C20.032 22.4599 21.7867 20.7889 23.9366 19.8259L24.2282 19.6976L24.047 19.9568C20.6756 24.7746 22.1491 29.8726 24.9448 32.5717C25.213 32.831 25.4967 33.0738 25.7942 33.2989C25.9132 33.3875 26.0342 33.4767 26.1604 33.5633C26.2226 33.6063 26.2847 33.6466 26.3469 33.6876C26.4711 33.7696 26.5994 33.8496 26.7309 33.9256C28.1876 34.7822 29.8463 35.2349 31.5362 35.2371C32.314 35.2366 33.0888 35.1394 33.8426 34.9476C33.9596 34.9172 34.0806 34.8854 34.1996 34.8517C34.3186 34.818 34.4342 34.779 34.5532 34.74C34.9755 34.596 35.3876 34.4238 35.7868 34.2244C35.9038 34.1655 36.0195 34.1054 36.1371 34.0432C36.2548 33.9811 36.3678 33.911 36.4815 33.8449C36.7195 33.7008 36.9509 33.5514 37.1657 33.3987L37.3455 33.2725L37.3026 33.4833Z" fill="#421C67"/>
<path d="M41.2862 20.1902C41.1655 19.7625 40.9091 19.3856 40.5555 19.1164C40.202 18.8472 39.7705 18.7001 39.3261 18.6975H39.1873C38.8554 18.7389 38.5205 18.6485 38.2545 18.4459C37.9884 18.2432 37.8123 17.9443 37.7641 17.6133C37.6368 17.182 37.3706 16.8047 37.0068 16.5403C36.6431 16.2758 36.2021 16.139 35.7525 16.1511H35.724C35.2646 16.1328 34.8124 16.27 34.4405 16.5405C34.0687 16.811 33.7989 17.199 33.6748 17.6418C33.6542 17.8039 33.6014 17.9602 33.5196 18.1016C33.4377 18.243 33.3284 18.3666 33.1981 18.4652C33.0678 18.5637 32.919 18.6352 32.7607 18.6755C32.6023 18.7157 32.4375 18.7238 32.276 18.6995C32.2581 18.6995 32.235 18.6995 32.2099 18.6995H32.1048C31.663 18.701 31.2338 18.8468 30.8825 19.1147C30.5312 19.3826 30.277 19.7579 30.1586 20.1835C29.9987 20.5968 29.9823 21.0518 30.1118 21.4755C30.2414 21.8993 30.5095 22.2672 30.8732 22.5204C31.2095 22.7012 31.4616 23.0064 31.5755 23.3708C31.6894 23.7352 31.6561 24.1297 31.4827 24.4698C31.387 24.7746 31.3652 25.0977 31.419 25.4125C31.4728 25.7273 31.6006 26.0248 31.7921 26.2805C31.9856 26.5479 32.2392 26.7661 32.5324 26.9177C32.8256 27.0692 33.1503 27.1499 33.4804 27.1531C33.8633 27.1529 34.2377 27.0406 34.5573 26.8298C34.8988 26.5747 35.3067 26.4235 35.732 26.3942C36.1434 26.4197 36.5374 26.569 36.8624 26.8225C37.1798 27.0424 37.5565 27.1606 37.9426 27.1617C38.5136 27.1328 39.0513 26.8838 39.4427 26.4669C39.834 26.05 40.0486 25.4977 40.0414 24.926V24.9048C40.0505 24.7111 40.0196 24.5176 39.9508 24.3363C39.8676 24.1823 39.8167 24.0129 39.8012 23.8385C39.7857 23.6641 39.8059 23.4884 39.8606 23.3221C39.9153 23.1558 40.0033 23.0024 40.1193 22.8712C40.2353 22.7401 40.3768 22.634 40.5352 22.5594C40.9025 22.3014 41.1746 21.9296 41.3095 21.5015C41.4444 21.0734 41.4346 20.6128 41.2816 20.1908M38.8753 21.3351L37.7733 22.5594C37.7032 22.6368 37.6516 22.7292 37.6226 22.8296C37.5936 22.9299 37.588 23.0356 37.6061 23.1385L37.8493 24.5207C37.8597 24.5806 37.8528 24.6422 37.8294 24.6983C37.806 24.7544 37.767 24.8027 37.7171 24.8374C37.6622 24.8784 37.5953 24.9002 37.5267 24.8995C37.4747 24.8993 37.4235 24.8866 37.3774 24.8625L36.0519 24.1697C35.9597 24.1206 35.8575 24.0933 35.7531 24.0899C35.6487 24.0864 35.5449 24.107 35.4497 24.1499L34.0317 24.7911C33.9782 24.8151 33.9191 24.824 33.8608 24.817C33.8026 24.81 33.7473 24.7873 33.7009 24.7513C33.6546 24.7153 33.6188 24.6674 33.5976 24.6127C33.5763 24.558 33.5703 24.4986 33.5802 24.4408L33.8222 23.0743C33.8422 22.9635 33.8346 22.8494 33.8 22.7421C33.7654 22.6349 33.7049 22.5378 33.6239 22.4596L32.551 21.4124C32.5084 21.3713 32.478 21.3192 32.463 21.2619C32.4479 21.2047 32.4489 21.1444 32.4657 21.0876C32.4825 21.0309 32.5146 20.9798 32.5584 20.94C32.6022 20.9002 32.6561 20.8731 32.7142 20.8618L34.2162 20.5795C34.3164 20.5615 34.4113 20.5214 34.4939 20.462C34.5766 20.4027 34.645 20.3256 34.6941 20.2364L35.4266 18.909C35.454 18.8595 35.4938 18.8181 35.5422 18.7887C35.5905 18.7594 35.6457 18.7432 35.7022 18.7418C35.7586 18.7396 35.8146 18.7527 35.8642 18.7795C35.9139 18.8064 35.9554 18.8461 35.9845 18.8945L36.795 20.2166C36.8461 20.2984 36.9136 20.3687 36.9932 20.4231C37.0728 20.4775 37.1629 20.5148 37.2577 20.5326L38.7008 20.797C38.7573 20.8076 38.8099 20.8331 38.8533 20.8708C38.8967 20.9084 38.9293 20.957 38.9477 21.0114C38.9662 21.0659 38.9698 21.1242 38.9582 21.1805C38.9467 21.2368 38.9203 21.289 38.8819 21.3318" fill="#421C67"/>
</svg>
